<svg xmlns="http://www.w3.org/2000/svg" viewBox="0 0 512.013 512.013" style="enable-background:new 0 0 512.013 512.013" xml:space="preserve"><path style="fill:#38454f" d="m494.3 163.306-80.8-33.7c-9.9-4.1-14.7-11.4-18.7-20.9-4.4-10.4-6.4-21.6-6.4-32.8 0-15.1-12.3-27.4-27.4-27.4H254.1c-13.6 0-24.6 11-24.6 24.6v3.9c0 11.4-2.3 22.8-7.9 32.6-4.4 7.8-10.2 13-19.9 14.8l-132.1 23.8c-40.6 8.8-69.6 44.8-69.6 86.3v190.2c0 11.7 9.4 21.1 21.1 21.1h215.3c21.8 11.2 46.4 17.7 72.6 17.7s50.8-6.4 72.6-17.7h112.8c23.5 0 23.5-282.5-.1-282.5"/><path style="fill:#283238" d="M467.9 304.606c0 87.8-71.1 158.9-158.9 158.9s-158.9-71.1-158.9-158.9 71.1-158.9 158.9-158.9 158.9 71.1 158.9 158.9M129.2 231.406c7.5-15.1 7.5-32.9 0-48l-18.9-37.8-27.8.2-12.9 2.3c-40.6 8.9-69.6 44.9-69.6 86.4v190.2c0 11.7 9.4 21.1 21.1 21.1h102.5v-190.4c0-8.3 1.9-16.5 5.6-24M494.3 163.306l-80.8-33.7c-6.2-2.6-10.2-6.4-13.4-11.2l9.3-22.6c.7-1.7 2.7-2.6 4.5-1.9l91.7 37.6c1.7.7 2.6 2.7 1.9 4.4l-10.8 26.3c-1 .6-1.5.8-2.4 1.1"/><path style="fill:#38454f" d="M105.9 203.006c0 12.2-13.8 22.1-30.9 22.1s-30.9-9.9-30.9-22.1 13.9-22 30.9-22 30.9 9.8 30.9 22"/><path style="fill:#283238" d="M462.8 189.806h-16.4c-7.7 0-13.9 6.2-13.9 13.9v1.1c7.2 9 13.4 18.7 18.6 29.1h11.7c7.6 0 13.9-6.2 13.9-13.9v-16.4c0-7.6-6.2-13.8-13.9-13.8"/><path style="fill:#434c6d" d="M309 419.306c-63.3 0-114.8-51.5-114.8-114.8s51.5-114.7 114.8-114.7 114.8 51.5 114.8 114.8-51.6 114.7-114.8 114.7"/><path style="fill:#7383bf" d="M309 426.306c-67.1 0-121.8-54.6-121.8-121.8 0-67.1 54.6-121.8 121.8-121.8 67.1 0 121.8 54.6 121.8 121.8-.1 67.2-54.7 121.8-121.8 121.8zm0-229.5c-59.4 0-107.8 48.3-107.8 107.8 0 59.4 48.3 107.8 107.8 107.8 59.4 0 107.8-48.3 107.8-107.8-.1-59.5-48.4-107.8-107.8-107.8z"/><path style="fill:#fff" d="M335.4 384.006c-2.3 0-4.5-.9-6.2-2.6-3.5-3.5-3.5-9 0-12.5l35.3-35.3c3.5-3.5 9-3.5 12.5 0s3.5 9 0 12.5l-35.3 35.3c-1.7 1.7-4 2.6-6.3 2.6M300.1 375.206c-2.3 0-4.5-.9-6.2-2.6-3.5-3.5-3.5-9 0-12.5l61.8-61.8c3.5-3.5 9-3.5 12.5 0s3.5 9 0 12.5l-61.8 61.8c-1.7 1.7-4 2.6-6.3 2.6"/><path style="fill:#283238" d="M345.9 110.306h-73.8c-4 0-7.2-3.2-7.2-7.2v-12c0-4 3.2-7.2 7.2-7.2h73.8c4 0 7.2 3.2 7.2 7.2v12c0 4-3.2 7.2-7.2 7.2"/><path style="fill:#fff" d="M317.8 313.406c0 4.9-4 8.8-8.8 8.8s-8.8-4-8.8-8.8 4-8.8 8.8-8.8 8.8 3.9 8.8 8.8"/></svg>