<?xml version="1.0" encoding="UTF-8" standalone="no"?>
<svg
   xmlns:dc="http://purl.org/dc/elements/1.1/"
   xmlns:cc="http://creativecommons.org/ns#"
   xmlns:rdf="http://www.w3.org/1999/02/22-rdf-syntax-ns#"
   xmlns:svg="http://www.w3.org/2000/svg"
   xmlns="http://www.w3.org/2000/svg"
   xmlns:xlink="http://www.w3.org/1999/xlink"
   xmlns:sodipodi="http://sodipodi.sourceforge.net/DTD/sodipodi-0.dtd"
   xmlns:inkscape="http://www.inkscape.org/namespaces/inkscape"
   width="516"
   height="516"
   version="1.1"
   id="svg195"
   sodipodi:docname="darktable.svg"
   inkscape:version="1.0.2 (e86c870879, 2021-01-15)">
  <metadata
     id="metadata199">
    <rdf:RDF>
      <cc:Work
         rdf:about="">
        <dc:format>image/svg+xml</dc:format>
        <dc:type
           rdf:resource="http://purl.org/dc/dcmitype/StillImage" />
        <dc:title></dc:title>
      </cc:Work>
    </rdf:RDF>
  </metadata>
  <sodipodi:namedview
     pagecolor="#ffffff"
     bordercolor="#666666"
     borderopacity="1"
     objecttolerance="10"
     gridtolerance="10"
     guidetolerance="10"
     inkscape:pageopacity="0"
     inkscape:pageshadow="2"
     inkscape:window-width="1920"
     inkscape:window-height="1051"
     id="namedview197"
     showgrid="false"
     inkscape:zoom="1.3856589"
     inkscape:cx="425.79021"
     inkscape:cy="258"
     inkscape:window-x="0"
     inkscape:window-y="0"
     inkscape:window-maximized="1"
     inkscape:current-layer="svg195" />
  <defs
     id="defs137">
    <linearGradient
       xlink:href="#g"
       id="G"
       gradientUnits="userSpaceOnUse"
       gradientTransform="rotate(60 717.317 524.507)"
       x1="277.627"
       y1="637.059"
       x2="454.048"
       y2="683.489" />
    <linearGradient
       id="h">
      <stop
         style="stop-color:#fff;stop-opacity:1"
         offset="0"
         id="stop3" />
      <stop
         style="stop-color:#b0b0b0;stop-opacity:1"
         offset="1"
         id="stop5" />
    </linearGradient>
    <linearGradient
       id="b">
      <stop
         style="stop-color:#ff7004;stop-opacity:1"
         offset="0"
         id="stop8" />
      <stop
         style="stop-color:#ba4704;stop-opacity:1"
         offset="1"
         id="stop10" />
    </linearGradient>
    <linearGradient
       id="c">
      <stop
         style="stop-color:#d70016;stop-opacity:1"
         offset="0"
         id="stop13" />
      <stop
         style="stop-color:#8d0016;stop-opacity:1"
         offset="1"
         id="stop15" />
    </linearGradient>
    <linearGradient
       id="d">
      <stop
         style="stop-color:#d000d0;stop-opacity:1"
         offset="0"
         id="stop18" />
      <stop
         style="stop-color:#760076;stop-opacity:1"
         offset="1"
         id="stop20" />
    </linearGradient>
    <linearGradient
       id="e">
      <stop
         style="stop-color:#1476e6;stop-opacity:1"
         offset="0"
         id="stop23" />
      <stop
         style="stop-color:#143e9a;stop-opacity:1"
         offset="1"
         id="stop25" />
    </linearGradient>
    <linearGradient
       id="f">
      <stop
         style="stop-color:#17b414;stop-opacity:1"
         offset="0"
         id="stop28" />
      <stop
         style="stop-color:#176314;stop-opacity:1"
         offset="1"
         id="stop30" />
    </linearGradient>
    <linearGradient
       id="g">
      <stop
         style="stop-color:#f7f10e;stop-opacity:1"
         offset="0"
         id="stop33" />
      <stop
         style="stop-color:#c58907;stop-opacity:1"
         offset="1"
         id="stop35" />
    </linearGradient>
    <linearGradient
       xlink:href="#h"
       id="L"
       x1="256"
       y1="224"
       x2="256"
       y2="288"
       gradientUnits="userSpaceOnUse" />
    <linearGradient
       xlink:href="#c"
       id="K"
       gradientUnits="userSpaceOnUse"
       gradientTransform="rotate(-60 -207.193 521.26)"
       x1="432.115"
       y1="650.053"
       x2="263.694"
       y2="710.341" />
    <linearGradient
       xlink:href="#d"
       id="J"
       gradientUnits="userSpaceOnUse"
       gradientTransform="rotate(-120 100.977 522.342)"
       x1="456.976"
       y1="694.418"
       x2="273.627"
       y2="643.987" />
    <linearGradient
       xlink:href="#e"
       id="I"
       gradientUnits="userSpaceOnUse"
       gradientTransform="rotate(180 255.062 522.883)"
       x1="326.125"
       y1="701.766"
       x2="342.125"
       y2="581.766" />
    <linearGradient
       xlink:href="#f"
       id="H"
       gradientUnits="userSpaceOnUse"
       gradientTransform="rotate(120 409.147 523.424)"
       x1="253.838"
       y1="725.269"
       x2="401.186"
       y2="612.484" />
    <linearGradient
       xlink:href="#b"
       id="F"
       gradientUnits="userSpaceOnUse"
       x1="372.859"
       y1="593.388"
       x2="318.297"
       y2="726.388"
       gradientTransform="translate(1.875 -533.766)" />
    <filter
       id="Y">
      <feGaussianBlur
         stdDeviation="1.758"
         id="feGaussianBlur64" />
    </filter>
    <filter
       id="j">
      <feGaussianBlur
         stdDeviation="9"
         id="feGaussianBlur85" />
    </filter>
    <filter
       id="i"
       color-interpolation-filters="sRGB">
      <feGaussianBlur
         stdDeviation="9"
         id="feGaussianBlur88" />
    </filter>
    <filter
       id="m"
       x="-.102"
       width="1.204"
       y="-.141"
       height="1.282">
      <feGaussianBlur
         stdDeviation="9.267"
         id="feGaussianBlur91" />
    </filter>
    <filter
       id="o"
       x="-.119"
       width="1.239"
       y="-.107"
       height="1.214">
      <feGaussianBlur
         stdDeviation="9.267"
         id="feGaussianBlur94" />
    </filter>
    <filter
       id="q"
       x="-.125"
       width="1.251"
       y="-.11"
       height="1.221">
      <feGaussianBlur
         stdDeviation="9.267"
         id="feGaussianBlur100" />
    </filter>
    <filter
       id="r"
       x="-.119"
       width="1.239"
       y="-.107"
       height="1.214">
      <feGaussianBlur
         stdDeviation="9.267"
         id="feGaussianBlur103" />
    </filter>
    <filter
       id="n"
       x="-.126"
       width="1.251"
       y="-.111"
       height="1.221">
      <feGaussianBlur
         stdDeviation="9.291"
         id="feGaussianBlur109" />
    </filter>
    <filter
       id="s"
       x="-.118"
       width="1.235"
       y="-.118"
       height="1.235">
      <feGaussianBlur
         stdDeviation="3.136"
         id="feGaussianBlur112" />
    </filter>
    <filter
       id="W">
      <feGaussianBlur
         stdDeviation="4.831"
         id="feGaussianBlur115" />
    </filter>
    <filter
       id="S">
      <feGaussianBlur
         stdDeviation="4.819"
         id="feGaussianBlur118" />
    </filter>
    <filter
       id="T">
      <feGaussianBlur
         stdDeviation="4.825"
         id="feGaussianBlur121" />
    </filter>
    <filter
       id="X">
      <feGaussianBlur
         stdDeviation="5.057"
         id="feGaussianBlur124" />
    </filter>
    <filter
       id="U">
      <feGaussianBlur
         stdDeviation="5.057"
         id="feGaussianBlur127" />
    </filter>
    <filter
       id="V">
      <feGaussianBlur
         stdDeviation="4.822"
         id="feGaussianBlur130" />
    </filter>
    <filter
       id="p"
       x="-.102"
       width="1.204"
       y="-.141"
       height="1.282">
      <feGaussianBlur
         stdDeviation="9.267"
         id="feGaussianBlur133" />
    </filter>
  </defs>
  <g
     style="display:inline"
     id="g145">
    <path
       style="opacity:.95;fill:#1a1a1a;fill-opacity:1;stroke:none;filter:url(#i)"
       d="M510 287a225 225 0 0 1-221.518 224.973 225 225 0 0 1-228.374-218.01 225 225 0 0 1 214.449-231.72A225 225 0 0 1 509.569 273.08"
       transform="matrix(.95556 0 0 .95556 -14.333 -16.244)"
       id="path139" />
    <path
       style="display:inline;opacity:.95;fill:#1a1a1a;fill-opacity:1;stroke:none;filter:url(#j)"
       d="M510 287a225 225 0 0 1-221.518 224.973 225 225 0 0 1-228.374-218.01 225 225 0 0 1 214.449-231.72A225 225 0 0 1 509.569 273.08"
       transform="matrix(.95556 0 0 .95556 -14.333 -16.244)"
       id="path141" />
    <path
       transform="matrix(.95556 0 0 .95556 -14.333 -16.244)"
       d="M510 287a225 225 0 0 1-221.518 224.973 225 225 0 0 1-228.374-218.01 225 225 0 0 1 214.449-231.72A225 225 0 0 1 509.569 273.08"
       style="display:inline;opacity:.95;fill:#1a1a1a;fill-opacity:1;stroke:none"
       id="path143" />
  </g>
  <g
     style="display:inline"
     transform="translate(3 1)"
     id="g161">
    <path
       d="m303.203 32.669-55.469 157.906 218.438-36.75C433.818 91.69 374.213 46.032 303.203 32.669z"
       style="display:inline;fill:#000;fill-opacity:1;fill-rule:nonzero;stroke:none;filter:url(#m)"
       id="path147" />
    <path
       style="display:inline;fill:#000;fill-opacity:1;fill-rule:nonzero;stroke:none;filter:url(#n)"
       d="M473.012 185.213 308.527 216.13l141.045 170.798c37.633-59.087 47.373-133.536 23.44-201.714z"
       id="path149" />
    <path
       d="m425.809 408.545-109.016-126.99L239.4 489.101c69.988 3.047 139.331-25.742 186.409-80.557z"
       style="display:inline;fill:#000;fill-opacity:1;fill-rule:nonzero;stroke:none;filter:url(#o)"
       id="path151" />
    <path
       style="display:inline;fill:#000;fill-opacity:1;fill-rule:nonzero;stroke:none;filter:url(#p)"
       d="m208.797 479.331 55.469-157.906-218.438 36.75c32.354 62.135 91.959 107.793 162.969 121.156z"
       id="path153" />
    <path
       d="m38.988 326.787 164.485-30.916L62.428 125.073C24.795 184.16 15.055 258.61 38.988 326.787z"
       style="display:inline;fill:#000;fill-opacity:1;fill-rule:nonzero;stroke:none;filter:url(#q)"
       id="path155" />
    <path
       style="display:inline;fill:#000;fill-opacity:1;fill-rule:nonzero;stroke:none;filter:url(#r)"
       d="m86.191 103.455 109.016 126.99L272.6 22.899C202.612 19.851 133.269 48.64 86.19 103.455z"
       id="path157" />
    <circle
       style="display:inline;fill:#000;fill-opacity:1;stroke:none;filter:url(#s)"
       cx="256"
       cy="256"
       r="32"
       id="circle159" />
  </g>
  <g
     style="display:inline"
     transform="translate(3 1)"
     id="g177">
    <path
       style="display:inline;fill:url(#F);fill-opacity:1;fill-rule:nonzero;stroke:none;filter:url(#filter3903)"
       d="m303.203 32.669-55.469 157.906 218.438-36.75C433.818 91.69 374.213 46.032 303.203 32.669z"
       id="path163" />
    <path
       d="M473.012 185.213 308.527 216.13l141.045 170.798c37.633-59.087 47.373-133.536 23.44-201.714z"
       style="display:inline;fill:url(#G);fill-opacity:1;fill-rule:nonzero;stroke:none;filter:url(#filter3903)"
       id="path165" />
    <path
       style="display:inline;fill:url(#H);fill-opacity:1;fill-rule:nonzero;stroke:none;filter:url(#filter3903)"
       d="m425.809 408.545-109.016-126.99L239.4 489.101c69.988 3.047 139.331-25.742 186.409-80.557z"
       id="path167" />
    <path
       d="m208.797 479.331 55.469-157.906-218.438 36.75c32.354 62.135 91.959 107.793 162.969 121.156z"
       style="display:inline;fill:url(#I);fill-opacity:1;fill-rule:nonzero;stroke:none;filter:url(#filter3903)"
       id="path169" />
    <path
       style="display:inline;fill:url(#J);fill-opacity:1;fill-rule:nonzero;stroke:none;filter:url(#filter3903)"
       d="m38.988 326.787 164.485-30.916L62.428 125.073C24.795 184.16 15.055 258.61 38.988 326.787z"
       id="path171" />
    <path
       d="m86.191 103.455 109.016 126.99L272.6 22.899C202.612 19.851 133.269 48.64 86.19 103.455z"
       style="display:inline;fill:url(#K);fill-opacity:1;fill-rule:nonzero;stroke:none;filter:url(#filter3903)"
       id="path173" />
    <circle
       style="fill:url(#L);fill-opacity:1;stroke:none"
       cx="256"
       cy="256"
       r="32"
       id="circle175" />
  </g>
  <g
     style="display:inline;opacity:.5"
     id="g193">
    <path
       style="display:inline;opacity:.15;fill:#fff;fill-opacity:1;fill-rule:nonzero;stroke:none;filter:url(#S)"
       d="M262.75 177.906c62.523-10.733 125.195-20.603 187.625-31.875C419.72 95.155 367.864 57.206 309.656 44.25L262.75 177.906z"
       transform="translate(3 1)"
       id="path179" />
    <path
       style="display:inline;opacity:.25;fill:#fff;fill-opacity:1;fill-rule:nonzero;stroke:none;filter:url(#T)"
       d="M327.031 222.844c40.524 48.788 80.415 98.102 121.406 146.5 28.721-51.924 35.594-115.91 17.782-172.719L327.03 222.844z"
       transform="translate(3 1)"
       id="path181" />
    <path
       style="display:inline;opacity:.15;fill:#fff;fill-opacity:1;fill-rule:nonzero;stroke:none;filter:url(#U)"
       d="M253.688 479.313c59.785-1.051 118.43-27.006 158.75-70.875l-92.22-107.5-66.53 178.375z"
       transform="translate(3 1)"
       id="path183" />
    <path
       style="display:inline;opacity:.15;fill:#fff;fill-opacity:1;fill-rule:nonzero;stroke:none;filter:url(#V)"
       d="M61.438 365.688c30.573 50.936 82.515 89.038 140.906 102.062l46.906-133.656-187.813 31.594z"
       transform="translate(3 1)"
       id="path185" />
    <path
       style="display:inline;opacity:.25;fill:#fff;fill-opacity:1;fill-rule:nonzero;stroke:none;filter:url(#W)"
       d="M63.25 143.219c-28.513 51.852-35.189 115.62-17.469 172.156l139.25-26.219L63.72 142.344z"
       transform="translate(3 1)"
       id="path187" />
    <path
       style="display:inline;opacity:.15;fill:#fff;fill-opacity:1;fill-rule:nonzero;stroke:none;filter:url(#X)"
       d="M257.719 32.719C198.32 33.77 139.789 59.879 99.53 103.53l92.25 107.531 66.531-178.375z"
       transform="translate(3 1)"
       id="path189" />
    <path
       style="display:inline;opacity:.15;fill:#fff;fill-opacity:1;stroke:none;filter:url(#Y)"
       d="M254.781 234.031c-17.879-.186-28.234 25.63-14.562 37.5 10.37 10.67 31.406 7.507 36.219-7.156 5.241-12.604-3.314-29.036-17.282-30.156a21.476 21.476 0 0 0-4.375-.188z"
       transform="translate(3 1)"
       id="path191" />
  </g>
</svg>
