<svg xmlns="http://www.w3.org/2000/svg" xmlns:xlink="http://www.w3.org/1999/xlink" width="516" height="516"><defs><filter id="m" x="-.102" width="1.204" y="-.141" height="1.282"><feGaussianBlur stdDeviation="9.267"/></filter><filter id="h" color-interpolation-filters="sRGB"><feGaussianBlur stdDeviation="9"/></filter><filter id="A"><feGaussianBlur stdDeviation="4.822"/></filter><filter id="z"><feGaussianBlur stdDeviation="5.057"/></filter><filter id="C"><feGaussianBlur stdDeviation="5.057"/></filter><filter id="y"><feGaussianBlur stdDeviation="4.825"/></filter><filter id="x"><feGaussianBlur stdDeviation="4.819"/></filter><filter id="B"><feGaussianBlur stdDeviation="4.831"/></filter><filter id="p" x="-.118" width="1.235" y="-.118" height="1.235"><feGaussianBlur stdDeviation="3.136"/></filter><filter id="k" x="-.126" width="1.251" y="-.111" height="1.221"><feGaussianBlur stdDeviation="9.291"/></filter><filter id="o" x="-.119" width="1.239" y="-.107" height="1.214"><feGaussianBlur stdDeviation="9.267"/></filter><filter id="n" x="-.125" width="1.251" y="-.11" height="1.221"><feGaussianBlur stdDeviation="9.267"/></filter><filter id="l" x="-.119" width="1.239" y="-.107" height="1.214"><feGaussianBlur stdDeviation="9.267"/></filter><filter id="j" x="-.102" width="1.204" y="-.141" height="1.282"><feGaussianBlur stdDeviation="9.267"/></filter><filter id="D"><feGaussianBlur stdDeviation="1.758"/></filter><filter id="i"><feGaussianBlur stdDeviation="9"/></filter><linearGradient id="f"><stop style="stop-color:#fff;stop-opacity:1" offset="0"/><stop style="stop-color:#b0b0b0;stop-opacity:1" offset="1"/></linearGradient><linearGradient xlink:href="#a" id="q" gradientUnits="userSpaceOnUse" x1="372.859" y1="593.388" x2="318.297" y2="726.388" gradientTransform="translate(1.875 -533.766)"/><linearGradient xlink:href="#b" id="s" gradientUnits="userSpaceOnUse" gradientTransform="rotate(120 409.147 523.424)" x1="253.838" y1="725.269" x2="401.186" y2="612.484"/><linearGradient xlink:href="#c" id="t" gradientUnits="userSpaceOnUse" gradientTransform="rotate(180 255.062 522.883)" x1="326.125" y1="701.766" x2="342.125" y2="581.766"/><linearGradient xlink:href="#d" id="u" gradientUnits="userSpaceOnUse" gradientTransform="rotate(-120 100.977 522.342)" x1="456.976" y1="694.418" x2="273.627" y2="643.987"/><linearGradient xlink:href="#e" id="v" gradientUnits="userSpaceOnUse" gradientTransform="rotate(-60 -207.193 521.26)" x1="432.115" y1="650.053" x2="263.694" y2="710.341"/><linearGradient xlink:href="#f" id="w" x1="256" y1="224" x2="256" y2="288" gradientUnits="userSpaceOnUse"/><linearGradient id="g"><stop style="stop-color:#f7f10e;stop-opacity:1" offset="0"/><stop style="stop-color:#c58907;stop-opacity:1" offset="1"/></linearGradient><linearGradient id="b"><stop style="stop-color:#17b414;stop-opacity:1" offset="0"/><stop style="stop-color:#176314;stop-opacity:1" offset="1"/></linearGradient><linearGradient id="c"><stop style="stop-color:#1476e6;stop-opacity:1" offset="0"/><stop style="stop-color:#143e9a;stop-opacity:1" offset="1"/></linearGradient><linearGradient id="d"><stop style="stop-color:#d000d0;stop-opacity:1" offset="0"/><stop style="stop-color:#760076;stop-opacity:1" offset="1"/></linearGradient><linearGradient id="e"><stop style="stop-color:#d70016;stop-opacity:1" offset="0"/><stop style="stop-color:#8d0016;stop-opacity:1" offset="1"/></linearGradient><linearGradient id="a"><stop style="stop-color:#ff7004;stop-opacity:1" offset="0"/><stop style="stop-color:#ba4704;stop-opacity:1" offset="1"/></linearGradient><linearGradient xlink:href="#g" id="r" gradientUnits="userSpaceOnUse" gradientTransform="rotate(60 717.317 524.507)" x1="277.627" y1="637.059" x2="454.048" y2="683.489"/></defs><g style="display:inline"><path style="opacity:.95;fill:#1a1a1a;fill-opacity:1;stroke:none;filter:url(#h)" d="M510 287a225 225 0 0 1-221.518 224.973 225 225 0 0 1-228.374-218.01 225 225 0 0 1 214.449-231.72A225 225 0 0 1 509.569 273.08" transform="translate(-14.333 -16.244) scale(.95556)"/><path style="display:inline;opacity:.95;fill:#1a1a1a;fill-opacity:1;stroke:none;filter:url(#i)" d="M510 287a225 225 0 0 1-221.518 224.973 225 225 0 0 1-228.374-218.01 225 225 0 0 1 214.449-231.72A225 225 0 0 1 509.569 273.08" transform="translate(-14.333 -16.244) scale(.95556)"/><path transform="translate(-14.333 -16.244) scale(.95556)" d="M510 287a225 225 0 0 1-221.518 224.973 225 225 0 0 1-228.374-218.01 225 225 0 0 1 214.449-231.72A225 225 0 0 1 509.569 273.08" style="display:inline;opacity:.95;fill:#1a1a1a;fill-opacity:1;stroke:none"/></g><g style="display:inline" transform="translate(3 1)"><path d="m303.203 32.669-55.469 157.906 218.438-36.75C433.818 91.69 374.213 46.032 303.203 32.669z" style="display:inline;fill:#000;fill-opacity:1;fill-rule:nonzero;stroke:none;filter:url(#j)"/><path style="display:inline;fill:#000;fill-opacity:1;fill-rule:nonzero;stroke:none;filter:url(#k)" d="M473.012 185.213 308.527 216.13l141.045 170.798c37.633-59.087 47.373-133.536 23.44-201.714z"/><path d="m425.809 408.545-109.016-126.99L239.4 489.101c69.988 3.047 139.331-25.742 186.409-80.557z" style="display:inline;fill:#000;fill-opacity:1;fill-rule:nonzero;stroke:none;filter:url(#l)"/><path style="display:inline;fill:#000;fill-opacity:1;fill-rule:nonzero;stroke:none;filter:url(#m)" d="m208.797 479.331 55.469-157.906-218.438 36.75c32.354 62.135 91.959 107.793 162.969 121.156z"/><path d="m38.988 326.787 164.485-30.916L62.428 125.073C24.795 184.16 15.055 258.61 38.988 326.787z" style="display:inline;fill:#000;fill-opacity:1;fill-rule:nonzero;stroke:none;filter:url(#n)"/><path style="display:inline;fill:#000;fill-opacity:1;fill-rule:nonzero;stroke:none;filter:url(#o)" d="m86.191 103.455 109.016 126.99L272.6 22.899c-69.988-3.048-139.331 25.741-186.41 80.556z"/><circle style="display:inline;fill:#000;fill-opacity:1;stroke:none;filter:url(#p)" cx="256" cy="256" r="32"/></g><g style="display:inline" transform="translate(3 1)"><path style="display:inline;fill:url(#q);fill-opacity:1;fill-rule:nonzero;stroke:none;filter:url(#filter3903)" d="m303.203 32.669-55.469 157.906 218.438-36.75C433.818 91.69 374.213 46.032 303.203 32.669z"/><path d="M473.012 185.213 308.527 216.13l141.045 170.798c37.633-59.087 47.373-133.536 23.44-201.714z" style="display:inline;fill:url(#r);fill-opacity:1;fill-rule:nonzero;stroke:none;filter:url(#filter3903)"/><path style="display:inline;fill:url(#s);fill-opacity:1;fill-rule:nonzero;stroke:none;filter:url(#filter3903)" d="m425.809 408.545-109.016-126.99L239.4 489.101c69.988 3.047 139.331-25.742 186.409-80.557z"/><path d="m208.797 479.331 55.469-157.906-218.438 36.75c32.354 62.135 91.959 107.793 162.969 121.156z" style="display:inline;fill:url(#t);fill-opacity:1;fill-rule:nonzero;stroke:none;filter:url(#filter3903)"/><path style="display:inline;fill:url(#u);fill-opacity:1;fill-rule:nonzero;stroke:none;filter:url(#filter3903)" d="m38.988 326.787 164.485-30.916L62.428 125.073C24.795 184.16 15.055 258.61 38.988 326.787z"/><path d="m86.191 103.455 109.016 126.99L272.6 22.899c-69.988-3.048-139.331 25.741-186.41 80.556z" style="display:inline;fill:url(#v);fill-opacity:1;fill-rule:nonzero;stroke:none;filter:url(#filter3903)"/><circle style="fill:url(#w);fill-opacity:1;stroke:none" cx="256" cy="256" r="32"/></g><g style="display:inline;opacity:.5"><path style="display:inline;opacity:.15;fill:#fff;fill-opacity:1;fill-rule:nonzero;stroke:none;filter:url(#x)" d="M262.75 177.906c62.523-10.733 125.195-20.603 187.625-31.875C419.72 95.155 367.864 57.206 309.656 44.25L262.75 177.906z" transform="translate(3 1)"/><path style="display:inline;opacity:.25;fill:#fff;fill-opacity:1;fill-rule:nonzero;stroke:none;filter:url(#y)" d="M327.031 222.844c40.524 48.788 80.415 98.102 121.406 146.5 28.721-51.924 35.594-115.91 17.782-172.719L327.03 222.844z" transform="translate(3 1)"/><path style="display:inline;opacity:.15;fill:#fff;fill-opacity:1;fill-rule:nonzero;stroke:none;filter:url(#z)" d="M253.688 479.313c59.785-1.051 118.43-27.006 158.75-70.875l-92.22-107.5-66.53 178.375z" transform="translate(3 1)"/><path style="display:inline;opacity:.15;fill:#fff;fill-opacity:1;fill-rule:nonzero;stroke:none;filter:url(#A)" d="M61.438 365.688c30.573 50.936 82.515 89.038 140.906 102.062l46.906-133.656-187.813 31.594z" transform="translate(3 1)"/><path style="display:inline;opacity:.25;fill:#fff;fill-opacity:1;fill-rule:nonzero;stroke:none;filter:url(#B)" d="M63.25 143.219c-28.513 51.852-35.189 115.62-17.469 172.156l139.25-26.219L63.72 142.344z" transform="translate(3 1)"/><path style="display:inline;opacity:.15;fill:#fff;fill-opacity:1;fill-rule:nonzero;stroke:none;filter:url(#C)" d="M257.719 32.719C198.32 33.77 139.789 59.879 99.53 103.53l92.25 107.531 66.531-178.375z" transform="translate(3 1)"/><path style="display:inline;opacity:.15;fill:#fff;fill-opacity:1;stroke:none;filter:url(#D)" d="M254.781 234.031c-17.879-.186-28.234 25.63-14.562 37.5 10.37 10.67 31.406 7.507 36.219-7.156 5.241-12.604-3.314-29.036-17.282-30.156a21.476 21.476 0 0 0-4.375-.188z" transform="translate(3 1)"/></g></svg>