<svg xmlns="http://www.w3.org/2000/svg" xml:space="preserve" width="719.613" height="698.547"><path d="M2307.14 2684.3c0 1022.36 498.95 1907.11 1983.55 1907.11 0-1024.54-673.96-1907.11-1983.55-1907.11" style="fill:#47a138;fill-opacity:1;fill-rule:nonzero;stroke:none" transform="matrix(.13333 0 0 -.13333 0 698.547)"/><path d="M4685.79 0c278.09 0 491.78 39.582 711.3 120.352 0 809.078-482.67 1387.238-1335.23 1803.868-652.43 327.18-1455.48 496.57-2187.85 496.57 321.36 964.53 87.12 2161.37-224.31 2818.33-345.01-688.26-560.37-1868.21-229.09-2828.21-650.559-47.43-1166.469-330.82-1384.743-704.49-16.488-28.5-49.512-89.25-29.75-99.65 15.551-8.32 40.723 17.11 56.27 31.31 235.074 217.6 546.34 323.64 845.176 323.64 690.657 0 1178.227-573.17 1522.717-917.46C3170.66 303.93 3894.34-1.508 4685.79 0" style="fill:#47a138;fill-opacity:1;fill-rule:nonzero;stroke:none" transform="matrix(.13333 0 0 -.13333 0 698.547)"/></svg>