<svg width="210" height="210" xmlns="http://www.w3.org/2000/svg"><g fill="none" fill-rule="evenodd"><path d="m105.061 203.655 38.64-118.921h-77.28l38.64 118.921z" fill="#E24329" class="tanuki-shape"/><path d="M105.061 203.655 66.421 84.734H12.268l92.793 118.92z" fill="#FC6D26" class="tanuki-shape"/><path d="M12.268 84.734.526 120.874a8 8 0 0 0 2.907 8.943l101.628 73.838-92.793-118.92z" fill="#FCA326" class="tanuki-shape"/><path d="M12.268 84.734h54.153L43.148 13.11c-1.197-3.686-6.41-3.685-7.608 0L12.27 84.734z" fill="#E24329" class="tanuki-shape"/><path d="m105.061 203.655 38.64-118.921h54.153l-92.793 118.92z" fill="#FC6D26" class="tanuki-shape"/><path d="m197.854 84.734 11.742 36.14a8 8 0 0 1-2.906 8.943l-101.629 73.838 92.793-118.92z" fill="#FCA326" class="tanuki-shape"/><path d="M197.854 84.734h-54.153l23.273-71.625c1.197-3.686 6.411-3.685 7.608 0l23.272 71.625z" fill="#E24329" class="tanuki-shape"/></g></svg>