<?xml version="1.0" encoding="UTF-8" standalone="no"?>
<svg
   version="1.0"
   width="376.48004pt"
   height="365.54077pt"
   viewBox="0 0 376.48004 365.54077"
   preserveAspectRatio="xMidYMid"
   id="svg36"
   sodipodi:docname="favicon.svg"
   inkscape:version="1.2.1 (9c6d41e410, 2022-07-14)"
   xmlns:inkscape="http://www.inkscape.org/namespaces/inkscape"
   xmlns:sodipodi="http://sodipodi.sourceforge.net/DTD/sodipodi-0.dtd"
   xmlns="http://www.w3.org/2000/svg"
   xmlns:svg="http://www.w3.org/2000/svg">
  <defs
     id="defs40" />
  <sodipodi:namedview
     id="namedview38"
     pagecolor="#ffffff"
     bordercolor="#000000"
     borderopacity="0.25"
     inkscape:showpageshadow="2"
     inkscape:pageopacity="0.0"
     inkscape:pagecheckerboard="0"
     inkscape:deskcolor="#d1d1d1"
     inkscape:document-units="pt"
     showgrid="false"
     inkscape:zoom="5.135"
     inkscape:cx="108.3739"
     inkscape:cy="124.44012"
     inkscape:window-width="3840"
     inkscape:window-height="2131"
     inkscape:window-x="0"
     inkscape:window-y="0"
     inkscape:window-maximized="1"
     inkscape:current-layer="svg36" />
  <metadata
     id="metadata2">
Created by potrace 1.11, written by Peter Selinger 2001-2013
</metadata>
  <g
     id="g352"
     transform="translate(-70.4,-58.53681)">
    <path
       d="m 271.1,59.1 c -19.9,3.4 -41.4,23.5 -49.7,46.5 -2.8,7.5 -3,14.2 -1,25.7 2.6,14.6 0.1,15.2 -12.5,3 -11.6,-11.2 -12.4,-12.7 -10.9,-20.7 2.1,-11.5 -1.5,-21.4 -11,-29.9 -11,-9.9 -28,-12.3 -40.5,-5.6 -3.8,2 -4,2.1 -12,0.4 C 122,76.1 103.1,76.8 94,80.1 84.8,83.3 77.7,90.5 76,98.2 c -1.5,6.6 -0.1,14.2 3.2,17.7 2.8,3.1 4.9,2.3 7.8,-3.2 3,-5.6 4.3,-6.7 8.8,-6.7 7.1,0 11.6,4.3 23.7,22.5 5.2,7.7 15.9,21.8 23.9,31.4 8,9.6 14.6,18 14.6,18.7 0,2 -2.6,2.4 -13.8,2.4 -7.3,-0.1 -12,-0.6 -14.7,-1.7 -9.9,-3.9 -16.3,-2.4 -26.7,6 -11.7,9.6 -24.9,31.3 -30,49.2 -3.2,11.4 -3.2,30.6 0,41.9 3.1,10.8 9.8,23.5 17.6,33.2 6.6,8.2 11.4,12.7 29.6,27.5 24.9,20.3 37,33.1 43.2,45.6 l 4.1,8.2 0.8,15.8 c 0.4,8.7 0.8,16.1 0.9,16.5 0.1,2.1 1.9,0.3 3.9,-4 5.5,-11.9 6.6,-26 3,-37.8 C 170.5,363.9 161.9,353 132.5,326 108.1,303.6 94.1,285.6 89,269.9 c -3.5,-10.7 -3.3,-25.8 0.4,-38.4 3.5,-11.9 7.6,-20.3 11.9,-25.2 4.4,-4.8 19.2,-12.1 26.3,-12.9 3,-0.4 13.8,0.6 28.4,2.6 13.7,1.9 28.3,3.3 35,3.4 11,0.1 11.8,0 16.8,-2.8 10.7,-6 18.7,-17.8 21.7,-32.2 0.9,-4.4 1.4,-12.5 1.4,-22.4 -0.1,-22.3 2.3,-30.9 12.6,-45.5 6.2,-8.8 12.9,-14.5 22.9,-19.5 8.2,-4.2 9.5,-4.5 16.5,-4.5 7.1,0 8.4,0.4 17.4,4.7 12.9,6.2 19.6,10.8 28.6,19.3 14.9,14.1 24.7,28.6 40,58.8 16.5,32.8 25.2,44.7 37.1,50.5 4.9,2.4 6.6,2.7 15.5,2.7 10.4,0 21.2,-1.8 24.2,-4.1 3.2,-2.3 -0.1,-3.8 -10,-4.5 -5.7,-0.4 -12.4,-1.7 -17.6,-3.4 -7.3,-2.3 -9.2,-3.4 -13.7,-8.1 -6.5,-6.7 -16.3,-26 -22.3,-44.4 C 366,95.3 337.7,66.9 299,60.7 285.6,58.5 277.3,58 271.1,59.1 Z m -98.4,25.1 c 5.3,2.5 11.6,8.5 14.2,13.6 3.7,7.2 4,16.2 0.5,16.2 -2.3,0 -6.4,4.6 -6.4,7.4 0,1.3 1.2,3.8 2.6,5.5 2,2.4 2.4,3.7 1.9,6.1 -1.4,6.6 -13.1,18.7 -22.3,23.1 -3.9,1.9 -4.4,2 -6.6,0.6 -1.3,-0.9 -4.8,-5.1 -7.9,-9.4 -3,-4.3 -9.9,-12.8 -15.4,-18.8 -19.1,-21.4 -19.1,-24.2 -0.1,-10.9 12.3,8.7 19.7,11.2 24.9,8.4 2.3,-1.3 5.5,-7.3 6.4,-12.1 1.4,-7.4 -5,-16.2 -11.7,-16.2 -1.9,0 -5.5,1.8 -10.2,5 -3.9,2.8 -8.2,5.4 -9.5,5.8 -2.6,0.8 -22.6,-6.4 -27.2,-9.8 -3.4,-2.5 -11,-3.3 -14.9,-1.7 -1.6,0.7 -4.4,2.8 -6,4.7 -3.5,3.9 -3.9,2.9 -1,-2.7 1.1,-2.1 4,-5.3 6.6,-7.1 11.3,-7.8 25.7,-9.4 39.3,-4.6 9.5,3.4 11.4,3.4 16.1,-0.4 7.4,-5.9 17.5,-6.9 26.7,-2.7 z m 45.7,69.4 c 2.5,1 1.9,4.6 -2,10.9 -10.1,16.8 -18.6,23.5 -30.1,23.5 -6.5,0 -11.3,-2.3 -11.3,-5.4 0,-2 0.9,-2.9 4.5,-4.5 2.7,-1.2 8.6,-6 14.8,-11.9 5.6,-5.4 11.3,-10.6 12.7,-11.5 2.4,-1.7 8.4,-2.2 11.4,-1.1 z"
       id="path6"
       style="fill:#000000;stroke:none;stroke-width:0.1" />
    <path
       d="m 275,91.6 c -13.5,3.6 -24.5,15.3 -32.2,34.1 -3.1,7.5 -3.2,8.4 -3.8,27.3 l -0.7,19.5 -4.3,10 c -4.9,11.5 -8.2,16.6 -13.8,21.7 -11.1,10 -29.4,10.9 -62.2,3.1 -8.2,-2 -12.1,-2.4 -17.8,-2 -22.4,1.7 -38.2,21.2 -38.2,47.2 0,10.4 2.1,19 7.2,29.4 5.1,10.6 17.1,23.4 37.3,39.5 30.3,24.3 39.1,35.7 55.6,72.1 l 2.3,5 0.9,-9.1 c 1.1,-10.7 -0.2,-18.6 -5.3,-32.8 -5.3,-14.4 -9.2,-18.6 -34.5,-37.6 -12.4,-9.2 -25.7,-20.1 -30.5,-25 -13.4,-13.4 -18.8,-25.9 -19.2,-44.3 -0.2,-7.1 0.1,-8.8 2.1,-12 3.2,-5.2 10.6,-11.5 17.1,-14.6 4.9,-2.3 6.8,-2.5 17,-2.6 11.2,0 11.7,0.1 18.5,3.5 l 7,3.5 14.5,-0.1 c 22.1,-0.1 30.6,-3 41.5,-14.1 5.8,-5.9 12.2,-17.2 15,-26.3 1.1,-3.5 2,-11.6 2.5,-22.5 1.9,-39.3 14,-59.8 33.8,-57.1 17.8,2.4 37.7,23.4 56.7,60.1 22.2,42.7 31.3,52.4 56.8,61.1 11.3,3.8 18.6,4.1 28.4,1 4.5,-1.5 8.4,-3 8.7,-3.5 0.3,-0.4 -3.8,-1.3 -9,-2 -5.3,-0.7 -11.7,-1.9 -14.3,-2.7 -14.4,-4.2 -36.7,-25.8 -50.6,-48.9 -2.7,-4.4 -7.8,-14.3 -11.5,-22 -8,-16.8 -15.6,-27.4 -29.4,-41 -10.9,-10.8 -18.1,-15.4 -28.1,-18 -7.2,-1.8 -10.3,-1.8 -17.5,0.1 z"
       id="path8"
       style="fill:#000000;stroke:none;stroke-width:0.1" />
    <path
       d="m 274.5,127.8 c -6.2,4.2 -11.4,10.3 -14,16.6 -3.1,7.3 -0.9,8.7 5.2,3.3 6.4,-5.6 8.5,-6.7 13.3,-6.7 9.5,0 18.6,9.3 35.5,36.5 18.6,29.9 24.6,35.9 42.1,42 6.3,2.2 9.4,2.3 9.4,0.4 0,-0.5 -3.1,-4.3 -6.9,-8.5 -9.4,-10.3 -15.8,-19.7 -24.7,-36.6 -15.1,-28.5 -24.2,-39.6 -37.7,-46.3 -4.2,-2.1 -9.5,-3.9 -11.9,-4.2 -3.8,-0.4 -5,0 -10.3,3.5 z"
       id="path10"
       style="fill:#000000;stroke:none;stroke-width:0.1" />
    <path
       d="m 264.6,155.9 c -1.6,1.1 -4.2,3.9 -5.8,6.2 -5.7,8.6 -2.7,15.8 6.3,14.6 6.8,-0.9 9.7,0.7 20.4,11.2 12.3,12.1 19.2,17.5 27,21.2 6.1,3 11.9,3.7 13,1.8 0.4,-0.6 -2.7,-4.3 -6.8,-8.2 -8.1,-7.7 -14.6,-15.9 -22,-27.4 -11.7,-18.2 -23.2,-25.2 -32.1,-19.4 z"
       id="path12"
       style="fill:#000000;stroke:none;stroke-width:0.1" />
    <path
       d="m 257.1,195.7 c -0.5,1 -2.5,4.9 -4.6,8.8 -10,19.1 -18.3,24.8 -42,29 -13.7,2.5 -13.4,2.3 -10,5.2 10.4,8.6 14.9,9.8 24.9,6.3 25.5,-8.8 44,-33 36.3,-47.8 -2,-3.6 -3.2,-4 -4.6,-1.5 z"
       id="path14"
       style="fill:#000000;stroke:none;stroke-width:0.1" />
    <path
       d="m 270.6,218.1 c -1.5,1.1 -5.3,5.5 -8.5,9.7 -9.4,12.4 -16.8,18.7 -27.4,23.7 -5.1,2.4 -9.9,5 -10.6,5.9 -3.3,4 4,8.2 12.4,7.2 13.4,-1.5 25.4,-8.3 31.5,-17.7 6.6,-10.3 10.2,-22.7 8.1,-28.2 -1.3,-3.2 -2,-3.3 -5.5,-0.6 z"
       id="path16"
       style="fill:#000000;stroke:none;stroke-width:0.1" />
    <path
       d="m 285.9,226.2 c -1.4,2.6 -0.5,11.8 1.5,15.7 4.8,9.2 43.2,34.4 64.6,42.4 20.1,7.5 36.9,9 47.4,4.3 6.3,-2.8 6.7,-4.2 1,-3.7 C 391,285.7 361.3,270.6 332,250.1 298.2,226.5 294.1,224 289.6,224 c -1.6,0 -3,0.8 -3.7,2.2 z"
       id="path18"
       style="fill:#000000;stroke:none;stroke-width:0.1" />
    <path
       d="m 145.3,233 c -4.8,1.1 -9.6,4.3 -12,8 -4.2,6.1 -2.2,19.2 4.9,33.5 6.6,12.9 13.3,20.4 29.8,33.1 5.8,4.5 12.8,10.8 15.7,14 10.6,11.9 11.1,12.4 12.7,11.8 3.8,-1.5 0.3,-12.7 -7.7,-24.3 -1.6,-2.4 -9.2,-10.9 -16.8,-18.8 -14.8,-15.5 -21.2,-24 -23,-30.6 -2,-7.4 1,-19 6.3,-24.4 l 3.2,-3.3 -5,0.1 c -2.7,0.1 -6.3,0.4 -8.1,0.9 z"
       id="path20"
       style="fill:#000000;stroke:none;stroke-width:0.1" />
    <path
       d="m 168,233.3 c -4.5,2.3 -5.4,5.8 -4.2,16.5 1.4,11.6 3.9,17.1 12.4,26.7 9.7,11 14.8,20 14.8,26.1 0,1.3 0.4,2.4 0.9,2.4 1.4,0 5.3,-11.2 5.8,-17 0.6,-6.7 -0.7,-10.1 -7.4,-19.2 -6.1,-8.1 -9,-14.7 -11,-24.7 C 177,232.4 174.5,230 168,233.3 Z"
       id="path22"
       style="fill:#000000;stroke:none;stroke-width:0.1" />
    <path
       d="m 280.3,250.7 c -2.2,0.8 -1.4,6.8 1.3,10.9 6.4,9.6 28.4,29.8 50.5,46.4 16.1,12.1 28.2,18.5 36.6,19.5 6,0.7 10.3,-0.4 10.3,-2.6 0,-2.2 -8.6,-10 -21.5,-19.4 -22.6,-16.5 -48.3,-35.7 -60,-44.8 -10.7,-8.5 -14.8,-10.8 -17.2,-10 z"
       id="path24"
       style="fill:#000000;stroke:none;stroke-width:0.1" />
    <path
       d="m 270,265.1 c -6.3,6.9 -5.1,10 14.2,36.5 25.1,34.4 38.6,49.7 48.1,54.6 4.6,2.3 14.7,3.1 15.4,1.2 1.7,-4.8 -68.3,-95.4 -73.6,-95.4 -0.7,0 -2.5,1.4 -4.1,3.1 z"
       id="path26"
       style="fill:#000000;stroke:none;stroke-width:0.1" />
    <path
       d="m 218.2,279.9 c -7,7 -11.2,13.8 -11.2,18.2 0,3.6 3.2,8.2 7.3,10.4 2,1 3.9,1.7 4.2,1.4 0.2,-0.3 -0.5,-3.3 -1.6,-6.7 -2.3,-6.8 -2,-10.4 0.6,-8.2 0.8,0.7 2,3.1 2.7,5.3 1.3,4.3 6.9,10.7 9.3,10.7 1.9,0 1.9,0.1 -0.6,-8.9 -2.3,-8.2 -2.8,-16.8 -1.5,-24.4 1.2,-6.7 -0.8,-6.3 -9.2,2.2 z"
       id="path28"
       style="fill:#000000;stroke:none;stroke-width:0.1" />
    <path
       d="m 254,275.5 c -1.6,2 -0.1,6.3 13.2,37.5 20.9,49 31.3,67.5 39.9,71 6.2,2.6 6.1,-1.5 -0.3,-20.5 -9.2,-27.5 -33.2,-72.2 -46.2,-86.3 -3.3,-3.5 -4.7,-3.9 -6.6,-1.7 z"
       id="path30"
       style="fill:#000000;stroke:none;stroke-width:0.1" />
    <path
       d="m 239.7,280.6 c -1.5,1.5 -0.6,8.4 2.7,22 4.4,18 8.5,38.9 13.6,69.4 4.2,25.8 5.5,31.6 7,32.5 1.7,1.1 6,-4.7 7.8,-10.4 2.1,-6.9 2.3,-29.8 0.3,-41.1 -3.9,-22.2 -12.1,-49.4 -19.4,-64.1 -4,-8 -4.4,-8.4 -7.7,-8.7 -2,-0.2 -3.9,0 -4.3,0.4 z"
       id="path32"
       style="fill:#000000;stroke:none;stroke-width:0.1" />
  </g>
</svg>
