<svg xmlns="http://www.w3.org/2000/svg" xmlns:xlink="http://www.w3.org/1999/xlink" width="512" height="512"><defs><linearGradient id="a"><stop offset="0" style="stop-color:#03a025;stop-opacity:1"/><stop offset="1" style="stop-color:#03a025;stop-opacity:.40650406"/></linearGradient><linearGradient id="b"><stop offset="0" style="stop-color:#4cfff6;stop-opacity:1"/><stop offset="1" style="stop-color:#4cfff6;stop-opacity:.34959349"/></linearGradient><linearGradient xlink:href="#a" id="c" gradientUnits="userSpaceOnUse" gradientTransform="matrix(.95 -.22624 0 .5 1491.48 -227.703)" x1="134.156" y1="96.203" x2="271.563" y2="96.203"/><linearGradient xlink:href="#b" id="d" gradientUnits="userSpaceOnUse" gradientTransform="matrix(.95 -.22624 0 .5 1491.48 -227.703)" x1="134.156" y1="41.324" x2="271.563" y2="41.324"/><filter color-interpolation-filters="sRGB" height="1.202" y="-.101" width="1.183" x="-.092" id="h"><feGaussianBlur stdDeviation="1.484"/></filter><filter color-interpolation-filters="sRGB" id="g"><feGaussianBlur stdDeviation="1.485"/></filter><filter color-interpolation-filters="sRGB" height="1.188" y="-.094" width="1.615" x="-.308" id="f"><feGaussianBlur stdDeviation="2.333"/></filter><filter color-interpolation-filters="sRGB" height="1.098" y="-.049" width="1.593" x="-.296" id="e"><feGaussianBlur stdDeviation="2.317"/></filter></defs><g style="display:inline"><path d="M1606.131-312.257c-21.531-2.496-40.001-5.65-40.001 11.523v80.924c0 16.613 19.678 15.055 42.034 12.88l130.276-12.675c10.4-1.012 18.295-1.946 18.295-12.176v-49.574c0-9.917-7.894-11.47-18.295-12.887l-130.276-17.739c-.666-.09-1.37-.2-2.033-.276 0 0 0 0 0 0" style="fill:#fff;fill-opacity:1;fill-rule:nonzero;stroke:#fff;stroke-width:1.37840486;stroke-linecap:square;stroke-linejoin:round;stroke-miterlimit:4;stroke-opacity:1;stroke-dasharray:none;stroke-dashoffset:20;marker:none;visibility:visible;display:inline;overflow:visible;enable-background:accumulate" transform="matrix(2.66534 0 0 3.07495 -4172.298 1005.307)"/><path d="M1714.847-272.422c-48.843-3.09-105.309 1.177-148.717 12.363v40.25c0 16.613 19.678 15.055 42.034 12.88l130.287-12.677c10.4-1.012 18.294-1.945 18.294-12.175v-35.685c-11.809-2.2-25.823-3.94-41.898-4.956 0 0 0 0 0 0" style="fill:url(#c);fill-opacity:1;fill-rule:nonzero;stroke:#fff;stroke-width:1.37840486;stroke-linecap:square;stroke-linejoin:round;stroke-miterlimit:4;stroke-opacity:1;stroke-dasharray:none;stroke-dashoffset:20;marker:none;visibility:visible;display:inline;overflow:visible;enable-background:accumulate" transform="matrix(2.66534 0 0 3.07495 -4172.298 1005.307)"/><path d="M1606.173-312.25c-21.528-2.496-40.043-5.657-40.043 11.516v40.648c43.408-11.184 99.874-15.447 148.717-12.355 16.075 1.018 30.09 2.757 41.898 4.959v-13.871c0-9.917-7.894-11.47-18.294-12.887l-130.287-17.74c-.666-.09-1.329-.194-1.99-.27 0 0 0 0 0 0" style="fill:url(#d);fill-opacity:1;fill-rule:nonzero;stroke:#fff;stroke-width:1.37840486;stroke-linecap:square;stroke-linejoin:round;stroke-miterlimit:4;stroke-opacity:1;stroke-dasharray:none;stroke-dashoffset:20;marker:none;visibility:visible;display:inline;overflow:visible;enable-background:accumulate" transform="matrix(2.66534 0 0 3.07495 -4172.298 1005.307)"/><path d="M1607.971-309.041c-20.237-2.211-37.56-4.613-37.56 11.114v65.047c18.928-22.676 67.984-55.193 164.22-59.75l-124.783-16.168c-.628-.082-1.253-.175-1.877-.243" style="opacity:.58196722;fill:#fff;fill-opacity:1;fill-rule:nonzero;stroke:none;stroke-width:2;marker:none;visibility:visible;display:inline;overflow:visible;enable-background:accumulate" transform="matrix(2.66534 0 0 3.07495 -4172.298 1005.307)"/></g><path style="fill:#fffa49;fill-opacity:1;fill-rule:nonzero;stroke:none;stroke-width:2;marker:none;visibility:visible;display:inline;overflow:visible;enable-background:accumulate" d="M569.854 70.829a8.59 8.17 0 0 1-8.59 8.17 8.59 8.17 0 0 1-8.591-8.17 8.59 8.17 0 0 1 8.59-8.17 8.59 8.17 0 0 1 8.591 8.17z" transform="matrix(-4.84977 0 0 4.84977 2995.665 -264.375)"/><path style="fill:#000;display:inline" d="M77.988 23.504c-3.994.717-18.205.557-25.504.02-7.295-.538-12.225-1.634-12.568-1.732-1.229-.35-6.166-1.203-4.532-2.197 2.076-1.262 3.81-4.047 3.812-6.125 0-.872.282-2.359.623-3.303.864-2.39.248-4.259-2.325-7.05-4.247-4.608-11.2-4.714-15.762-.241-4.292 4.206-4.51 10.564-.505 14.754 2.297 2.401 2.014 2.484-4.313 1.26-2.192-.424-8.81-2.046-12.222-2.782-9.775-2.11-16.77-4.282-25.945-10.712C-27.168 12.7 10.164 22.74 25.928 25.02c21.752 2.794 30.046 2.558 39.501 2.512 9.455-.046 13.636-1.301 12.559-4.028zm-60.15 8.936c-1.273 4.933-2.18 8.398-4.73 16.624C10.51 57.448 2.586 71.895.232 74.868c-.911 1.15-1.656 2.492-1.656 2.982 0 .49 2.707 3.814 6.016 7.388 4.588 4.955 6.18 6.36 6.711 5.92.561-.466.497-1.1-.328-3.274-1.32-3.473-1.328-8.675-.02-12.486 3.283-9.567 7.293-19.312 8.405-20.424.77-.77.795-.652.267 1.283-.32 1.172-.78 2.375-1.02 2.672-1.034 1.275-4.277 17.927-4.696 24.107l-.313 4.607 5.366 3.653c2.95 2.009 5.516 3.652 5.7 3.652.185 0 .465-.336.622-.746.158-.41.088-.959-.153-1.219-.887-.951-1.74-13.4-1.384-20.204.406-7.784 1.52-16.277 2.705-20.62 1.091-4 2.896-10.491 3.84-13.812.424-1.49 1.037-3.866 1.362-5.28.557-1.835.529-2.373 1.043-4.1 0-.56-.47-.941-1.219-.99-.67-.043-3.833-.262-7.027-.487-.917-.277-3.05-.782-4.213-1.394m4.688-9.982c-1.785-1.733-1.977-2.198-1.962-4.74.02-3.024.69-4.302 3.09-5.884 3.284-2.166 8.807-.527 11.247 3.338 1.585 2.512 1.616 2.796.535 4.886-1.383 2.676-4.388 4.322-7.89 4.322-2.75 0-3.23-.184-5.02-1.922z" transform="matrix(4.84977 0 0 4.84977 127.26 28.502)"/><path style="fill:none;stroke:#fff;stroke-width:2;stroke-linecap:butt;stroke-linejoin:miter;stroke-miterlimit:4;stroke-opacity:1;stroke-dasharray:none;display:inline;filter:url(#e)" d="m775.74 107.816 13.132 52.023s4.293 21.213 3.536 31.314l-1.87 29.268" transform="matrix(-2.49221 0 0 2.49221 2205.289 -93.808)"/><path style="fill:none;stroke:#fff;stroke-width:2;stroke-linecap:butt;stroke-linejoin:miter;stroke-miterlimit:4;stroke-opacity:1;stroke-dasharray:none;display:inline;filter:url(#f)" d="m800.489 151.505 10.859 27.021c5.476 11.366 6.27 17.682 6.45 21.466.253 5.303.138 12.37.138 12.37" transform="matrix(-2.49221 0 0 2.49221 2205.289 -93.808)"/><path style="fill:none;stroke:#fff;stroke-width:1px;stroke-linecap:butt;stroke-linejoin:miter;stroke-opacity:1;display:inline;filter:url(#g)" d="M794.015 88.998s27.768-5.187 44.652-9.75c13.94-3.945 31.628-13.747 35.537-17.183" transform="matrix(-2.49221 0 0 2.49221 2205.289 -93.808)"/><path style="fill:none;stroke:#fff;stroke-width:1px;stroke-linecap:butt;stroke-linejoin:miter;stroke-opacity:1;display:inline;filter:url(#h)" d="M757.943 65.248c1.16-4.911 8.125-13.75 18.125-14.286 9.808-.532 19.35 8.69 19.643 16.071.982 7.679-3.393 14.375-7.5 18.215" transform="matrix(-2.49221 0 0 2.49221 2205.289 -93.808)"/></svg>