<svg viewBox="0 0 274.432 274.432" xmlns="http://www.w3.org/2000/svg"><radialGradient id="c" cx="130" cy="922.362" gradientTransform="matrix(2.81818 -.27273 .1839 1.90021 -405.978 -794.869)" gradientUnits="userSpaceOnUse" r="55"><stop offset="0" stop-color="#202020"/><stop offset="1" stop-color="#1a1a1a"/></radialGradient><radialGradient id="d" cx="49" cy="34.526" gradientTransform="matrix(3.42427 1.2495 -1.1128 3.04966 -80.368 -131.992)" gradientUnits="userSpaceOnUse" r="49"><stop offset="0" stop-color="#f2f2f2"/><stop offset="1" stop-color="#f2f2f2" stop-opacity="0"/></radialGradient><linearGradient id="e" gradientUnits="userSpaceOnUse" x1="-19.817" x2="150.183" y1="712.444" y2="932.444"><stop offset="0" stop-color="#fff"/><stop offset="1" stop-color="#fff" stop-opacity="0"/></linearGradient><filter id="b"><feGaussianBlur stdDeviation="2.97"/></filter><filter id="a" height="1.408" width="1.054" x="-.027" y="-.204"><feGaussianBlur stdDeviation="1.7"/></filter><g transform="translate(8.787 -787.86)"><rect filter="url(#a)" height="20" opacity=".2" rx="10" ry="8.005" transform="matrix(1 0 0 1.13452 -8.787 751.058)" width="150" x="63.787" y="249.502"/><rect filter="url(#b)" height="256" opacity=".7" rx="10" ry="10" width="140" x="59.976" y="796.388"/><rect fill="#f2f2f2" height="256" rx="10" ry="10" stroke="#6a6a6a" stroke-width=".5" width="140" x="60" y="796.362"/><rect fill="#111" height="220" rx="0" ry="0" width="120" x="70" y="812.362"/><rect fill="url(#c)" height="210" rx="0" ry="0" width="110" x="75" y="817.362"/><rect fill="#fff" height="5" opacity=".7" rx="3" ry="2.5" width="40" x="110" y="803.344"/><rect fill="#111" height="5" rx="3" ry="2.5" width="40" x="110" y="802.362"/><path d="M99 805.844a1.5 1.5 0 1 1-3 0 1.5 1.5 0 1 1 3 0z" fill="#fff" opacity=".7"/><path d="M99 804.862a1.5 1.5 0 1 1-3 0 1.5 1.5 0 1 1 3 0z" fill="#111"/><path d="M18.1.02c-.196.02-.406.074-.553.22l-6.769 6.77a.865.865 0 0 0-.11 1.066l7.91 13.06a33.716 33.716 0 0 0-3.348 7.578L.699 31.73c-.404.084-.699.469-.699.883v9.565c0 .404.308.75.699.846l14.09 3.421c.753 3.108 1.917 6.083 3.457 8.792L10.08 67.671a.88.88 0 0 0 .11 1.104l6.769 6.768a.864.864 0 0 0 1.066.11l12.802-7.761c2.511 1.45 5.23 2.61 8.093 3.384l2.98 14.347a.866.866 0 0 0 .846.7h9.565c.401 0 .75-.27.846-.664l3.531-14.42a33.627 33.627 0 0 0 8.314-3.494l12.618 8.277a.883.883 0 0 0 1.104-.11l6.732-6.77a.869.869 0 0 0 .147-1.066l-4.599-7.578-1.508.478a.537.537 0 0 1-.588-.221s-2.905-4.273-6.696-9.822c-4.533 8.87-13.778 14.935-24.426 14.935-15.13 0-27.406-12.275-27.406-27.406 0-11.13 6.655-20.689 16.186-24.978V6.421a33.772 33.772 0 0 0-5.003 2.207c-.003-.002.003-.035 0-.036L18.651.13c-.174-.113-.357-.13-.552-.11zm39.03-17.29-17.216 1.656V55.31l17.032-2.575v-30.24l22.918 33.55 17.952-5.702-23.47-32.262L98-12.34l-18.32-4.194-22.734 30.423.184-31.159z" fill="url(#d)" transform="matrix(.9171 0 0 .9171 85.056 892.743)"/><rect fill="url(#e)" height="256" opacity=".5" rx="10" ry="10" width="140" x="60.183" y="796.444"/></g></svg>