<svg xmlns="http://www.w3.org/2000/svg" xmlns:xlink="http://www.w3.org/1999/xlink" width="190" height="189.125" style="--cs-zoom:1"><defs><linearGradient xlink:href="#a" id="d" gradientUnits="userSpaceOnUse" gradientTransform="translate(196.35 -38.224) scale(1.09126)" x1="61.429" y1="362.143" x2="116.429" y2="408.571"/><linearGradient id="a"><stop style="stop-color:#c7f994;stop-opacity:1" offset="0"/><stop style="stop-color:#87cf3e;stop-opacity:1" offset="1"/></linearGradient><linearGradient xlink:href="#b" id="e" gradientUnits="userSpaceOnUse" gradientTransform="translate(0 80)" spreadMethod="pad" x1="70.492" y1="416.389" x2="113.642" y2="375.88"/><linearGradient id="b"><stop offset="0" style="stop-color:#3d3d3d;stop-opacity:1"/><stop offset="1" style="stop-color:#000;stop-opacity:.11400651"/></linearGradient><filter color-interpolation-filters="sRGB" id="c"><feGaussianBlur stdDeviation="1.628"/></filter><filter color-interpolation-filters="sRGB" id="f"><feGaussianBlur stdDeviation=".16"/></filter></defs><path transform="translate(-435.119 -640.77) scale(1.58456)" d="M331.79 510.933c-21.29 0-39.765-16.14-39.765-37.41l-.02-21.993v-6.586h-13.497v-36.651l56.92.268 17.806.038c21.309 0 39.765 16.121 39.765 37.411v64.923H331.79z" style="opacity:.26000001;fill:#000;fill-opacity:1;fill-rule:evenodd;stroke:none;stroke-width:1;marker:none;visibility:visible;display:inline;overflow:visible;filter:url(#c);enable-background:accumulate"/><path d="M354.825 425.265V375.82c0-16.52-14.487-29.91-32.36-29.91h-18.552v-.04l-50.176-.22v18.042h7.703c5.376 0 6.326 3.711 6.326 8.848l.04 31.894c0 16.52 14.486 29.91 32.34 29.91h44.083c5.65 0 10.596-3.579 10.596-9.08z" style="fill:url(#d);fill-opacity:1;fill-rule:evenodd;display:inline" transform="translate(-363.933 -504.006) scale(1.51933)"/><path transform="translate(-59.185 -648.896) scale(1.59302)" d="M142.938 500.531c-10.752-7.41-18.367-15.92-24.782-27.187-12.644-23.358-9.688-34.954-41-37.688-9.036 0-15.051-2-24.562-2v3.313s3.758 1.907 7.062 1.907c4.927 0 5.782 3.418 5.782 8.125l.03 29.155c0 15.138 13.296 27.406 29.657 27.406H135.5c2.964 0 5.626-1.167 7.438-3.03z" style="opacity:.17514122;fill:url(#e);fill-opacity:1;fill-rule:nonzero;display:inline;filter:url(#filter3291)"/><path transform="translate(-59.185 -648.896) scale(1.59302)" d="M105.518 438.54c-3.836 0-7.245 1.425-9.984 4.191-2.738 2.766-4.176 6.218-4.176 10.115v19.694h8.933v-19.694c0-1.494.488-2.661 1.554-3.738 1.07-1.081 2.203-1.57 3.673-1.57 1.502 0 2.618.487 3.69 1.57 1.066 1.077 1.554 2.244 1.554 3.738v19.694h8.933v-19.694c0-1.494.487-2.661 1.553-3.738 1.072-1.083 2.188-1.57 3.69-1.57 1.47 0 2.604.489 3.673 1.57 1.067 1.077 1.554 2.244 1.554 3.738l.049 23.012c0 4.909-4.675 9.046-10.681 9.046l-28.806-.113c-4.634 0-8.593-4.511-8.593-10.309v-43.335h-8.447v45.002c0 4.775 1.747 8.962 5.146 12.348 2.905 2.867 6.399 4.564 10.325 4.984v.162h32.074c4.929 0 9.259-1.833 12.752-5.39H134c2.971-3.052 4.708-6.71 5.13-10.825l-.032-24.582c0-3.897-1.437-7.349-4.175-10.115-2.74-2.766-6.148-4.19-9.985-4.19-3.766 0-7.061 1.4-9.726 3.964-2.657-2.56-5.93-3.965-9.694-3.965z" style="fill:#000;fill-opacity:.08040203;fill-rule:evenodd;stroke:none;stroke-width:4.7667098;marker:none;visibility:visible;display:inline;overflow:visible;filter:url(#f);enable-background:accumulate"/><path d="M310.468 364.69c-4.023 0-7.597 1.494-10.469 4.395-2.87 2.9-4.378 6.52-4.378 10.605v20.65h9.366v-20.65c0-1.566.511-2.79 1.63-3.92 1.121-1.133 2.309-1.646 3.851-1.646 1.575 0 2.745.51 3.869 1.646 1.118 1.13 1.629 2.354 1.629 3.92v20.65h9.366v-20.65c0-1.566.51-2.79 1.629-3.92 1.124-1.135 2.294-1.646 3.868-1.646 1.543 0 2.73.513 3.852 1.646 1.118 1.13 1.629 2.354 1.629 3.92l.05 24.128c0 5.147-4.9 9.485-11.198 9.485l-30.202-.119c-4.86 0-9.01-4.73-9.01-10.808v-45.437h-8.858v47.184c0 5.007 1.832 9.397 5.396 12.947 3.046 3.007 6.71 4.956 10.826 5.396h33.63c5.168 0 9.708-1.922 13.37-5.65h.017c3.115-3.201 4.937-7.036 5.38-11.352l-.035-25.774c0-4.085-1.507-7.705-4.377-10.605-2.872-2.901-6.447-4.395-10.47-4.395-3.948 0-7.403 1.469-10.197 4.157-2.786-2.684-6.217-4.157-10.164-4.157z" style="fill:#fff;fill-opacity:1;fill-rule:evenodd;stroke:none;stroke-width:1;marker:none;visibility:visible;display:inline;overflow:visible;enable-background:accumulate" transform="translate(-363.933 -504.006) scale(1.51933)"/><path d="M304.96 413.216v9.25h22c5.168 0 9.681-1.928 13.344-5.657h.031c3.115-3.2 4.933-7.027 5.375-11.343v-5.25h-9.344v3.593c0 5.147-4.89 9.47-11.187 9.47l-20.219-.063z" style="opacity:.3;fill:#52a800;fill-opacity:1;fill-rule:evenodd;stroke:none;stroke-width:1;marker:none;visibility:visible;display:inline;overflow:visible;enable-background:accumulate" transform="translate(-363.933 -504.006) scale(1.51933)"/><path d="M299.853 441.191c-21.29 0-39.765-16.14-39.765-37.41l-.02-25.828v-6.586h-13.497V338.55l56.92.268 17.806.038c21.309 0 39.765 16.12 39.765 37.411v64.923h-61.209zm52.536-17.415v-47.508c0-15.872-13.919-28.738-31.092-28.738h-17.825v-.038l-48.21-.21v15.412h5.401c3.667 0 8.078 3.445 8.078 8.501l.039 32.566c0 15.872 13.919 28.738 31.073 28.738h42.355c5.43 0 10.181-3.439 10.181-8.723z" style="fill:#fff;fill-opacity:1;fill-rule:evenodd;stroke:none;stroke-width:1;marker:none;visibility:visible;display:inline;overflow:visible;enable-background:accumulate" transform="translate(-363.933 -504.006) scale(1.51933)"/></svg>