<svg version="1.0" xmlns="http://www.w3.org/2000/svg" width="682.667" height="682.667" viewBox="0 0 512 512"><path d="M70 210v180h50V238h50v239h50V309h169v168h50V117h-50v148H220V238.3l14.3-.7c33-1.7 54.8-9.8 71.6-26.6 21.6-21.6 32.6-52.4 30.7-85.8-1.8-32.9-13.4-56.6-36-74-7.7-5.9-22.3-13.4-31.2-16.1-17.1-5-18.6-5.1-112-5.1H70v180zM244 76.4c21.9 6.1 35.1 19.1 40.1 39.6 2 8 1.7 29.8-.4 38-3.9 14.5-12.1 25.3-24.2 31.7-8.1 4.2-22.2 8.3-31.7 9l-7.8.6V117h-50v79h-50V73.9l58.8.3c52.7.4 59.4.6 65.2 2.2z"/></svg>