<svg xmlns="http://www.w3.org/2000/svg" version="1.0" width="665.589" height="496.863" viewBox="0 0 499.192 372.647"><path d="M346.746.627c-39.7 5.6-70 33-78.6 71-1.3 6.1-1.9 12.4-1.9 22.3 0 13.3-.1 13.8-2.2 14.6-7 2.7-7.7 10-1.5 14l3.7 2.4v58.7l-2.2.4c-1.3.3-5.2 1-8.8 1.6-14.3 2.6-29.7 8-41.7 14.7-6.3 3.5-11.3 7.1-30.8 22.3-20.6 16.1-42 23.4-68.5 23.4-25.7 0-46.5-6.9-67-22.2-10.3-7.6-11.3-9.3-4.2-6.8 2.3.8 8.6 2.1 14.1 2.7 22.4 2.8 45.1-3.3 64.4-17.2 3.7-2.7 6.9-4.9 7.1-4.9.2 0 .7 1.7 1.1 3.7 1.5 8.1 9.7 25.4 15.3 32.4l2 2.4 5.7-1.9c8.9-3.1 9.1-3.4 4.9-8.6-4.9-6.1-12-21.1-13.8-29-.8-3.6-1.8-9.8-2.2-13.8-.6-6.2-1.1-7.6-3.2-9.3-3.9-3-6.9-1.7-14.1 6.2-19 20.8-45.8 29.9-72.3 24.4-11.1-2.3-25.7-10-35.1-18.5-8.1-7.3-9-7.7-13.1-5.9-4.8 2.2-5 5.2-1.2 19 20.8 75.9 79.7 138 154.4 162.9 21.6 7.1 49.4 12.4 56.4 10.7 4.4-1.1 4.8-4 4.8-32.5 0-14.7.5-30.1 1-34.2 2.9-22.6 12.8-46.2 27.1-65.2l4.7-6.3-3.4-2.1c-3.3-2-3.8-4.2-.5-2.5.9.5 14 4.3 29.1 8.6 15.1 4.3 29.7 8.6 32.3 9.6 2.6 1.1 5 1.9 5.2 1.9.3 0 .5-3.5.5-7.8v-7.7l-6.5-3.4c-8-4.1-17.7-11.3-23.2-17.4l-4.3-4.7v-42.5c0-41.1.1-42.5 1.9-42.5 1.8 0 1.9 1 2.3 14.2.3 13.2.6 14.7 3 19.4 3.1 5.9 7.3 9.8 13.8 12.8 3.8 1.8 6.3 2.1 16.5 2 13.6-.1 16.9-1.1 23.6-7.1 4.9-4.5 7.7-9.7 8.6-16 .8-6.3 1.6-7.8 5.3-9.3 2.8-1.1 3.4-1.1 5.8.7 2 1.5 3 3.5 3.9 8.2 2.1 10.4 6.6 16.6 15.1 20.8 5.3 2.6 6.5 2.8 17.7 2.8 14.1-.1 18.6-1.6 25.3-8.5 6-6.2 7.2-10.8 7.2-26.7 0-12.6.1-13.3 2-13.3 2 0 2 .7 2 42.9v42.9l-6.2 6.2c-6.3 6.2-16.2 13.3-23 16.6l-3.8 1.8v7.8c0 4.3.2 7.8.5 7.8.2 0 2.6-.9 5.3-1.9 2.7-1.1 17-5.4 31.8-9.6 14.8-4.1 27.9-8 29.1-8.5 1.3-.5 2.5-.6 2.8 0 .3.5-.3 1.1-1.2 1.5-1 .3-2.6 1.2-3.6 1.9-1.6 1.3-1.4 1.9 3.7 8.7 3 4 7.6 11.1 10.2 15.7 2.6 4.6 5.8 8.9 7 9.4 3.6 1.7 7.6-.3 9.8-4.8 2.5-5 3.4-24.2 1.6-32.7-2.7-13.4-12.9-28-25.2-36.1-5.7-3.8-17.6-8.5-21.5-8.6h-2.3v-60.5l3.2-1.5c5.9-2.8 5.8-11-.2-13.3l-3-1.1v-12.1c0-14.5-1.2-22.1-5.1-34-4.3-12.9-10.1-22.5-19.9-32.8-9.6-10.1-16.6-15.3-28.4-20.7-14.6-6.8-34.5-10.1-49.1-8zm74.5 38.9c0 .6-4.5 4.7-10 9.3-5.5 4.6-10 8.7-10 9.2 0 2 6.4 10.7 11.1 15.1 5.1 4.7 12.9 9 18.7 10.1l3.2.6v24.8h-54.8l-1.6-2.5-1.6-2.5h-36.9l-1.9 2.5-2 2.5h-55.2v-10.3c0-10.3 1.2-20.1 3.2-26.9l1.1-3.7 4.6 3.3c18.3 13.2 47.3 13.3 78.1.1 15-6.4 37.6-19.9 49.4-29.4 4.2-3.4 4.6-3.6 4.6-2.2zm-57 81.1v3h-6.5c-4.9 0-6.7-.4-7.1-1.5-1.4-3.4.3-4.5 7.1-4.5h6.5zm-29 15.9c0 14.1-.8 16.4-7 19.6-4 2.1-18.1 2-22.1 0-5.7-3-6.9-6.5-6.9-20.3v-12.2h36zm80.8-2.6c.3 11.7-.8 16.3-4.8 20.2-2.9 2.8-3.7 3-12.3 3.3-7.5.3-9.8 0-12.6-1.6-5.8-3.1-7.1-6.9-7.1-20.5v-11.7l18.3.2 18.2.3z"/><path d="M311.846 129.727c-2 1.6-2.6 2.9-2.6 5.9 0 4.8 2.5 7.9 7.1 8.6 5.8 1 9.8-3.6 9-10.4-.1-.9-.6-1-1.9-.3-2.4 1.3-6.2-1.2-6.2-4 0-2.5-2.1-2.4-5.4.2zm79.9.4c-5.4 5.4-1.3 14.5 6.5 14.5 2.9 0 8-5.3 8-8.3 0-3.1-.8-3.9-3-2.7-2.2 1.2-6-1.4-6-4.1 0-2.6-2.6-2.4-5.5.6zm-70.5 90.5c-1.9 1.9-2 3.3-2 26.4v24.5l2.6 2c1.5 1.2 3.3 2.1 4 2.1.7 0 8.2-2.4 16.5-5.4l15.3-5.4 15.5 5.5c23.4 8.3 23.1 8.7 23.1-23.8 0-21.4-.1-22.8-2.1-25.3-1.3-1.6-3-2.6-4.7-2.6-1.5 0-9.2 2.3-17.2 5.2l-14.4 5.2-15.1-5.2c-8.2-2.9-16-5.2-17.2-5.2-1.3 0-3.2.9-4.3 2zm20.5 18.5c3.8 1.4 7.3 2.9 7.8 3.4s.7 2.7.5 5.1l-.3 4.2-7.7 2.8c-4.2 1.5-7.8 2.7-8 2.5-.3-.3.2-20.5.5-20.5.1 0 3.3 1.1 7.2 2.5zm39.5 7.5c0 7.8-.3 10-1.4 10-.7 0-4.2-1.1-7.7-2.4l-6.4-2.4-.3-4.9-.3-4.9 7.3-2.6c4-1.5 7.6-2.7 8.1-2.7.4-.1.7 4.4.7 9.9z"/></svg>