<?xml version="1.0" encoding="UTF-8" standalone="no"?>
<svg
   version="1.0"
   width="900.28809"
   height="372.82471"
   id="svg2"
   sodipodi:docname="Geometrical_Aberration_de.svg"
   inkscape:version="1.3 (0e150ed6c4, 2023-07-21)"
   xmlns:inkscape="http://www.inkscape.org/namespaces/inkscape"
   xmlns:sodipodi="http://sodipodi.sourceforge.net/DTD/sodipodi-0.dtd"
   xmlns="http://www.w3.org/2000/svg"
   xmlns:svg="http://www.w3.org/2000/svg">
  <sodipodi:namedview
     id="namedview2"
     pagecolor="#ffffff"
     bordercolor="#000000"
     borderopacity="0.25"
     inkscape:showpageshadow="2"
     inkscape:pageopacity="0.0"
     inkscape:pagecheckerboard="0"
     inkscape:deskcolor="#d1d1d1"
     inkscape:zoom="3.293"
     inkscape:cx="452.01944"
     inkscape:cy="193.74431"
     inkscape:window-width="3840"
     inkscape:window-height="2126"
     inkscape:window-x="0"
     inkscape:window-y="0"
     inkscape:window-maximized="1"
     inkscape:current-layer="svg2" />
  <defs
     id="defs4">
    <radialGradient
       cx="485"
       cy="105"
       r="120"
       fx="485"
       fy="105"
       id="radialGradient3474"
       gradientUnits="userSpaceOnUse">
      <stop
         id="stop3470"
         style="stop-color:#ffdacd"
         offset="0" />
      <stop
         id="stop3472"
         style="stop-color:#ff4000"
         offset="1" />
    </radialGradient>
    <radialGradient
       cx="295"
       cy="105"
       r="110"
       fx="295"
       fy="105"
       id="radialGradient2456"
       gradientUnits="userSpaceOnUse">
      <stop
         id="stop3462"
         style="stop-color:#cdffe7"
         offset="0" />
      <stop
         id="stop3464"
         style="stop-color:#00ff80"
         offset="1" />
    </radialGradient>
    <radialGradient
       cx="105"
       cy="105"
       r="100"
       fx="105"
       fy="105"
       id="radialGradient2460"
       gradientUnits="userSpaceOnUse">
      <stop
         id="stop3418"
         style="stop-color:#cde7ff"
         offset="0" />
      <stop
         id="stop3420"
         style="stop-color:#0080ff"
         offset="1" />
    </radialGradient>
  </defs>
  <g
     transform="matrix(1.66,0,0,1.66,-47.947129,-31.164825)"
     id="g2">
    <rect
       width="150"
       height="150"
       x="220"
       y="30"
       id="rect2385"
       style="fill:url(#radialGradient2456);stroke:#000000;stroke-width:2" />
    <path
       d="M 250,30 V 180 M 280,30 V 180 M 310,30 V 180 M 340,30 V 180 M 220,60 H 370 M 220,90 h 150 m -150,30 h 150 m -150,30 h 150"
       id="path3157"
       style="fill:none;stroke:#000000;stroke-width:1" />
    <path
       d="m 30,180 c 10.636667,-1.06 21.25872,-2.29836 31.91,-3.18 9.685387,-0.80169 19.390203,-1.5519 29.1,-1.87 9.31687,-0.30523 18.66313,-0.30523 27.98,0 9.7098,0.3181 19.41461,1.06831 29.1,1.87 10.65128,0.88164 21.27333,2.12 31.91,3.18 -1.06,-10.63667 -2.29836,-21.25872 -3.18,-31.91 -0.80169,-9.68539 -1.5519,-19.3902 -1.87,-29.1 -0.30523,-9.31687 -0.30523,-18.66313 0,-27.98 0.3181,-9.709797 1.06831,-19.414613 1.87,-29.1 0.88164,-10.65128 2.12,-21.273333 3.18,-31.91 -10.63667,1.06 -21.25872,2.298358 -31.91,3.18 -9.68539,0.801692 -19.3902,1.551897 -29.1,1.87 -9.31687,0.30523 -18.66313,0.30523 -27.98,0 C 81.300203,34.731897 71.595387,33.981692 61.91,33.18 51.25872,32.298358 40.636667,31.06 30,30 c 1.06,10.636667 2.298358,21.25872 3.18,31.91 0.801692,9.685387 1.551897,19.390203 1.87,29.1 0.30523,9.31687 0.30523,18.66313 0,27.98 -0.318103,9.7098 -1.068308,19.41461 -1.87,29.1 C 32.298358,158.74128 31.06,169.36333 30,180 Z"
       id="rect3178"
       style="fill:url(#radialGradient2460);stroke:#000000;stroke-width:2" />
    <path
       d="m 61.91,33.18 c 0.81,10.386667 1.707353,20.767307 2.43,31.16 0.640686,9.213973 1.374526,18.43197 1.66,27.66 0.267859,8.65864 0.267859,17.34136 0,26 -0.285474,9.22803 -1.019314,18.44603 -1.66,27.66 -0.722647,10.39269 -1.62,20.77333 -2.43,31.16 M 91.01,35.05 C 91.34,45.366667 91.662955,55.683564 92,66 c 0.292955,8.966897 0.742033,17.930958 0.9,26.9 0.142033,8.06429 0.142033,16.13571 0,24.2 -0.157967,8.96904 -0.607045,17.9331 -0.9,26.9 -0.337045,10.31644 -0.66,20.63333 -0.99,30.95 M 118.99,35.05 C 118.66,45.366667 118.33705,55.683564 118,66 c -0.29295,8.966897 -0.74203,17.930958 -0.9,26.9 -0.14203,8.06429 -0.14203,16.13571 0,24.2 0.15797,8.96904 0.60705,17.9331 0.9,26.9 0.33705,10.31644 0.66,20.63333 0.99,30.95 m 29.1,-141.77 c -0.81,10.386667 -1.70735,20.767307 -2.43,31.16 -0.64069,9.213973 -1.37453,18.43197 -1.66,27.66 -0.26786,8.65864 -0.26786,17.34136 0,26 0.28547,9.22803 1.01931,18.44603 1.66,27.66 0.72265,10.39269 1.62,20.77333 2.43,31.16 M 176.82,61.91 c -10.38667,0.81 -20.76731,1.707353 -31.16,2.43 -9.21397,0.640686 -18.43197,1.374526 -27.66,1.66 -8.65864,0.267859 -17.34136,0.267859 -26,0 C 82.77197,65.714526 73.553973,64.980686 64.34,64.34 53.947307,63.617353 43.566667,62.72 33.18,61.91 m 141.77,29.1 C 164.63333,91.34 154.31644,91.662955 144,92 c -8.9669,0.292955 -17.93096,0.742033 -26.9,0.9 -8.06429,0.142033 -16.13571,0.142033 -24.2,0 C 83.930958,92.742033 74.966897,92.292955 66,92 55.683564,91.662955 45.366667,91.34 35.05,91.01 m 139.9,27.98 C 164.63333,118.66 154.31644,118.33705 144,118 c -8.9669,-0.29295 -17.93096,-0.74203 -26.9,-0.9 -8.06429,-0.14203 -16.13571,-0.14203 -24.2,0 -8.969042,0.15797 -17.933103,0.60705 -26.9,0.9 -10.316436,0.33705 -20.633333,0.66 -30.95,0.99 m 141.77,29.1 c -10.38667,-0.81 -20.76731,-1.70735 -31.16,-2.43 -9.21397,-0.64069 -18.43197,-1.37453 -27.66,-1.66 -8.65864,-0.26786 -17.34136,-0.26786 -26,0 -9.22803,0.28547 -18.446027,1.01931 -27.66,1.66 -10.392693,0.72265 -20.773333,1.62 -31.16,2.43"
       id="path3414"
       style="fill:none;stroke:#000000;stroke-width:1" />
    <path
       d="m 410,180 c 8.77333,2.04667 17.45053,4.64876 26.32,6.14 10.48053,1.7621 21.118,3.03467 31.73,3.62 11.26467,0.62134 22.63533,0.62134 33.9,0 10.612,-0.58533 21.24947,-1.8579 31.73,-3.62 8.86947,-1.49124 17.54667,-4.09333 26.32,-6.14 2.04667,-8.77333 4.64876,-17.45053 6.14,-26.32 1.7621,-10.48053 3.03467,-21.118 3.62,-31.73 0.62134,-11.26467 0.62134,-22.635329 0,-33.9 C 569.17467,77.438004 567.9021,66.800528 566.14,56.32 564.64876,47.450528 562.04667,38.773333 560,30 c -8.77333,-2.046666 -17.45053,-4.648767 -26.32,-6.139999 -10.48053,-1.762101 -21.118,-3.034666 -31.73,-3.62 -11.26467,-0.621333 -22.63533,-0.621333 -33.9,0 -10.612,0.585334 -21.24947,1.857899 -31.73,3.62 C 427.45053,25.351233 418.77333,27.953334 410,30 c -2.04667,8.773333 -4.64876,17.450528 -6.14,26.32 -1.7621,10.480528 -3.03467,21.118004 -3.62,31.73 -0.62134,11.264671 -0.62134,22.63533 0,33.9 0.58533,10.612 1.8579,21.24947 3.62,31.73 1.49124,8.86947 4.09333,17.54667 6.14,26.32 z"
       id="rect3288"
       style="fill:url(#radialGradient3474);stroke:#000000;stroke-width:2" />
    <path
       d="m 436.32,23.86 c -1.57333,9.246667 -3.53594,18.442197 -4.72,27.74 -1.45927,11.458864 -2.69761,22.994137 -3.21,34.53 -0.55761,12.554137 -0.55761,25.18586 0,37.74 0.51239,11.53586 1.75073,23.07114 3.21,34.53 1.18406,9.2978 3.14667,18.49333 4.72,27.74 m 31.73,-165.9 c -0.64,9.383333 -1.38584,18.760515 -1.92,28.15 -0.68251,11.997182 -1.46088,23.999283 -1.73,36.01 -0.30755,13.72595 -0.30755,27.47405 0,41.2 0.26912,12.01072 1.04749,24.01282 1.73,36.01 0.53416,9.38948 1.28,18.76667 1.92,28.15 m 33.9,-169.52 c 0.64,9.383333 1.38584,18.760515 1.92,28.15 0.68251,11.997182 1.46088,23.999283 1.73,36.01 0.30755,13.72595 0.30755,27.47405 0,41.2 -0.26912,12.01072 -1.04749,24.01282 -1.73,36.01 -0.53416,9.38948 -1.28,18.76667 -1.92,28.15 m 31.73,-165.9 c 1.57333,9.246667 3.53594,18.442197 4.72,27.74 1.45927,11.458864 2.69761,22.994137 3.21,34.53 0.55761,12.554137 0.55761,25.18586 0,37.74 -0.51239,11.53586 -1.75073,23.07114 -3.21,34.53 -1.18406,9.2978 -3.14667,18.49333 -4.72,27.74 M 566.14,56.320001 c -9.24667,-1.573333 -18.4422,-3.535937 -27.74,-4.72 -11.45886,-1.459271 -22.99414,-2.697614 -34.53,-3.21 -12.55414,-0.557614 -25.18586,-0.557614 -37.74,0 -11.53586,0.512386 -23.07114,1.750729 -34.53,3.21 -9.2978,1.184063 -18.49333,3.146667 -27.74,4.72 m 165.9,31.73 c -9.38333,-0.64 -18.76052,-1.385841 -28.15,-1.92 -11.99718,-0.682508 -23.99928,-1.460883 -36.01,-1.73 -13.72595,-0.307549 -27.47405,-0.307549 -41.2,0 -12.01072,0.269117 -24.01282,1.047492 -36.01,1.73 -9.38948,0.534159 -18.76667,1.28 -28.15,1.92 M 569.76,121.95 c -9.38333,0.64 -18.76052,1.38584 -28.15,1.92 -11.99718,0.68251 -23.99928,1.46088 -36.01,1.73 -13.72595,0.30755 -27.47405,0.30755 -41.2,0 -12.01072,-0.26912 -24.01282,-1.04749 -36.01,-1.73 -9.38948,-0.53416 -18.76667,-1.28 -28.15,-1.92 m 165.9,31.73 c -9.24667,1.57333 -18.4422,3.53594 -27.74,4.72 -11.45886,1.45927 -22.99414,2.69761 -34.53,3.21 -12.55414,0.55761 -25.18586,0.55761 -37.74,0 -11.53586,-0.51239 -23.07114,-1.75073 -34.53,-3.21 -9.2978,-1.18406 -18.49333,-3.14667 -27.74,-4.72"
       id="path3367"
       style="fill:none;stroke:#000000;stroke-width:1" />
    <g
       style="font-size:16px;font-family:'Nimbus Sans L';text-anchor:middle"
       id="g1">
      <text
         x="105"
         y="220"
         id="text2422"><tspan
           x="105"
           y="220"
           id="tspan2424">kissenförmige</tspan><tspan
           x="105"
           y="240"
           id="tspan2426">Verzeichnung</tspan></text>
      <text
         x="295"
         y="220"
         id="text2428"><tspan
           x="295"
           y="220"
           id="tspan2430">verzeichnungsfreie</tspan><tspan
           x="295"
           y="240"
           id="tspan2432">Abbildung</tspan></text>
      <text
         x="485"
         y="220"
         id="text2434"><tspan
           x="485"
           y="220"
           id="tspan2436">tonnenförmige</tspan><tspan
           x="485"
           y="240"
           id="tspan2438">Verzeichnung</tspan></text>
    </g>
  </g>
</svg>
