<svg xmlns="http://www.w3.org/2000/svg" xmlns:xlink="http://www.w3.org/1999/xlink" width="320" height="269.651"><defs><filter id="j" width="1.096" height="1.096" x="-.048" y="-.048" style="color-interpolation-filters:sRGB"><feGaussianBlur stdDeviation="9"/></filter><filter id="k" width="1.096" height="1.096" x="-.048" y="-.048"><feGaussianBlur stdDeviation="9"/></filter><filter id="l" width="1.204" height="1.282" x="-.102" y="-.141"><feGaussianBlur stdDeviation="9.267"/></filter><filter id="n" width="1.239" height="1.214" x="-.119" y="-.107"><feGaussianBlur stdDeviation="9.267"/></filter><filter id="o" width="1.204" height="1.282" x="-.102" y="-.141"><feGaussianBlur stdDeviation="9.267"/></filter><filter id="p" width="1.251" height="1.221" x="-.125" y="-.11"><feGaussianBlur stdDeviation="9.267"/></filter><filter id="q" width="1.239" height="1.214" x="-.119" y="-.107"><feGaussianBlur stdDeviation="9.267"/></filter><filter id="m" width="1.251" height="1.221" x="-.126" y="-.111"><feGaussianBlur stdDeviation="9.291"/></filter><filter id="r" width="1.235" height="1.235" x="-.118" y="-.118"><feGaussianBlur stdDeviation="3.136"/></filter><filter id="D" width="1.156" height="1.134" x="-.078" y="-.067"><feGaussianBlur stdDeviation="4.831"/></filter><filter id="z" width="1.123" height="1.173" x="-.062" y="-.087"><feGaussianBlur stdDeviation="4.819"/></filter><filter id="A" width="1.155" height="1.134" x="-.078" y="-.067"><feGaussianBlur stdDeviation="4.825"/></filter><filter id="E" width="1.153" height="1.136" x="-.076" y="-.068"><feGaussianBlur stdDeviation="5.057"/></filter><filter id="B" width="1.153" height="1.136" x="-.076" y="-.068"><feGaussianBlur stdDeviation="5.057"/></filter><filter id="C" width="1.123" height="1.173" x="-.062" y="-.087"><feGaussianBlur stdDeviation="4.822"/></filter><filter id="F" width="1.192" height="1.192" x="-.096" y="-.096"><feGaussianBlur stdDeviation="1.758"/></filter><filter id="H" width="1.105" height="1.14" x="-.052" y="-.07" style="color-interpolation-filters:sRGB"><feGaussianBlur stdDeviation="6.564"/></filter><filter id="I" width="1.067" height="1.036" x="-.033" y="-.018" style="color-interpolation-filters:sRGB"><feGaussianBlur stdDeviation="3.945"/></filter><filter id="K" width="1.084" height="1.213" x="-.042" y="-.106" style="color-interpolation-filters:sRGB"><feGaussianBlur stdDeviation="7.137"/></filter><linearGradient id="i"><stop offset="0" style="stop-color:#eee;stop-opacity:1"/><stop offset="1" style="stop-color:#aaa;stop-opacity:1"/></linearGradient><linearGradient id="h"><stop offset="0" style="stop-color:#eee;stop-opacity:1"/><stop offset="1" style="stop-color:#aaa;stop-opacity:1"/></linearGradient><linearGradient id="g"><stop offset="0" style="stop-color:#fff;stop-opacity:1"/><stop offset="1" style="stop-color:#b0b0b0;stop-opacity:1"/></linearGradient><linearGradient id="a"><stop offset="0" style="stop-color:#ff7004;stop-opacity:1"/><stop offset="1" style="stop-color:#ba4704;stop-opacity:1"/></linearGradient><linearGradient id="f"><stop offset="0" style="stop-color:#d70016;stop-opacity:1"/><stop offset="1" style="stop-color:#8d0016;stop-opacity:1"/></linearGradient><linearGradient id="e"><stop offset="0" style="stop-color:#d000d0;stop-opacity:1"/><stop offset="1" style="stop-color:#760076;stop-opacity:1"/></linearGradient><linearGradient id="d"><stop offset="0" style="stop-color:#1476e6;stop-opacity:1"/><stop offset="1" style="stop-color:#143e9a;stop-opacity:1"/></linearGradient><linearGradient id="c"><stop offset="0" style="stop-color:#17b414;stop-opacity:1"/><stop offset="1" style="stop-color:#176314;stop-opacity:1"/></linearGradient><linearGradient id="b"><stop offset="0" style="stop-color:#f7f10e;stop-opacity:1"/><stop offset="1" style="stop-color:#c58907;stop-opacity:1"/></linearGradient><linearGradient xlink:href="#a" id="s" x1="372.859" x2="318.297" y1="593.388" y2="726.388" gradientTransform="matrix(.08254 0 0 .08254 -2.598 428.437)" gradientUnits="userSpaceOnUse"/><linearGradient xlink:href="#b" id="t" x1="277.627" x2="454.048" y1="637.059" y2="683.489" gradientTransform="rotate(60.001 -351.36 277.167) scale(.08254)" gradientUnits="userSpaceOnUse"/><linearGradient xlink:href="#c" id="u" x1="253.838" x2="401.186" y1="725.269" y2="612.484" gradientTransform="rotate(119.999 -104.002 278.659) scale(.08254)" gradientUnits="userSpaceOnUse"/><linearGradient xlink:href="#d" id="v" x1="326.125" x2="342.125" y1="701.766" y2="581.766" gradientTransform="matrix(-.08254 0 0 -.08254 39.352 558.808)" gradientUnits="userSpaceOnUse"/><linearGradient xlink:href="#e" id="w" x1="456.976" x2="273.627" y1="694.418" y2="643.987" gradientTransform="rotate(-119.999 143.355 280.159) scale(.08254)" gradientUnits="userSpaceOnUse"/><linearGradient xlink:href="#f" id="x" x1="432.115" x2="263.694" y1="650.053" y2="710.341" gradientTransform="rotate(-60.001 390.712 281.667) scale(.08254)" gradientUnits="userSpaceOnUse"/><linearGradient xlink:href="#g" id="y" x1="256" x2="256" y1="224" y2="288" gradientTransform="matrix(.08254 0 0 .08254 -2.752 472.493)" gradientUnits="userSpaceOnUse"/><linearGradient xlink:href="#h" id="M" x1="284.137" x2="495.263" y1="48.729" y2="216.87" gradientTransform="matrix(.08254 0 0 .08254 -2.752 472.493)" gradientUnits="userSpaceOnUse"/><clipPath id="J" clipPathUnits="userSpaceOnUse"><path d="M225.688-8.183c46.824-37.07 63.098-57.486 115.72-70.182 45.139-10.89 85.074-20.301 167.076-8.093 85.891 40.57 231.154 206.899 214.074 364.377-9.071 83.637-50.737 119.432-80.825 162.901-28.003-30.512-39.156-63.432-50.459-96.33-5.518-16.06 10.565-54.562 33.963-72.974-23.302-40.628-43.914-75.387-68.817-113.608-2.665 20.992-15.69 23.121-29.814 43.083z" style="fill:#980101;stroke:none"/></clipPath><clipPath id="L" clipPathUnits="userSpaceOnUse"><path d="M225.688-8.183c46.824-37.07 63.098-57.486 115.72-70.182 45.139-10.89 85.074-20.301 167.076-8.093 85.891 40.57 231.154 206.899 214.074 364.377-9.071 83.637-50.737 119.432-80.825 162.901-28.003-30.512-39.156-63.432-50.459-96.33-5.518-16.06 10.565-54.562 33.963-72.974-23.302-40.628-43.914-75.387-68.817-113.608-2.665 20.992-15.69 23.121-29.814 43.083z" style="fill:#980101;stroke:none"/></clipPath><radialGradient xlink:href="#i" id="G" cx="615.021" cy="439.56" r="53.05" fx="615.021" fy="439.56" gradientTransform="matrix(.08254 0 0 .08604 -2.752 470.886)" gradientUnits="userSpaceOnUse"/></defs><g transform="matrix(5.38307 0 0 5.38307 13.165 -2502.497)"><path d="M510 287a225 225 0 0 1-221.518 224.973 225 225 0 0 1-228.374-218.01 225 225 0 0 1 214.449-231.72A225 225 0 0 1 509.569 273.08" style="display:inline;opacity:.95;fill:#1a1a1a;fill-opacity:1;stroke:none;filter:url(#j)" transform="matrix(.07887 0 0 .07887 -4.183 471.07)"/><path d="M510 287a225 225 0 0 1-221.518 224.973 225 225 0 0 1-228.374-218.01 225 225 0 0 1 214.449-231.72A225 225 0 0 1 509.569 273.08" style="display:inline;opacity:.95;fill:#1a1a1a;fill-opacity:1;stroke:none;filter:url(#k)" transform="matrix(.07887 0 0 .07887 -4.183 471.07)"/><path d="M36.04 493.705a17.746 17.746 0 0 1-17.47 17.744A17.746 17.746 0 0 1 .557 494.254 17.746 17.746 0 0 1 17.47 475.98a17.746 17.746 0 0 1 18.535 16.628" style="display:inline;opacity:.95;fill:#1a1a1a;fill-opacity:1;stroke:none"/><path d="m303.203 32.669-55.469 157.906 218.438-36.75C433.818 91.69 374.213 46.032 303.203 32.669Z" style="display:inline;fill:#000;fill-opacity:1;fill-rule:nonzero;stroke:none;filter:url(#l)" transform="matrix(.08254 0 0 .08254 -2.752 472.493)"/><path d="M473.012 185.213 308.527 216.13l141.045 170.798c37.633-59.087 47.373-133.536 23.44-201.714z" style="display:inline;fill:#000;fill-opacity:1;fill-rule:nonzero;stroke:none;filter:url(#m)" transform="matrix(.08254 0 0 .08254 -2.752 472.493)"/><path d="m425.809 408.545-109.016-126.99L239.4 489.101c69.988 3.047 139.331-25.742 186.409-80.557z" style="display:inline;fill:#000;fill-opacity:1;fill-rule:nonzero;stroke:none;filter:url(#n)" transform="matrix(.08254 0 0 .08254 -2.752 472.493)"/><path d="m208.797 479.331 55.469-157.906-218.438 36.75c32.354 62.135 91.959 107.793 162.969 121.156z" style="display:inline;fill:#000;fill-opacity:1;fill-rule:nonzero;stroke:none;filter:url(#o)" transform="matrix(.08254 0 0 .08254 -2.752 472.493)"/><path d="m38.988 326.787 164.485-30.916L62.428 125.073C24.795 184.16 15.055 258.61 38.988 326.787Z" style="display:inline;fill:#000;fill-opacity:1;fill-rule:nonzero;stroke:none;filter:url(#p)" transform="matrix(.08254 0 0 .08254 -2.752 472.493)"/><path d="m86.191 103.455 109.016 126.99L272.6 22.899C202.612 19.851 133.269 48.64 86.19 103.455Z" style="display:inline;fill:#000;fill-opacity:1;fill-rule:nonzero;stroke:none;filter:url(#q)" transform="matrix(.08254 0 0 .08254 -2.752 472.493)"/><circle cx="256" cy="256" r="32" style="display:inline;fill:#000;fill-opacity:1;stroke:none;filter:url(#r)" transform="matrix(.08254 0 0 .08254 -2.752 472.493)"/><path d="m22.273 475.19-4.578 13.033 18.03-3.034c-2.671-5.128-7.59-8.897-13.452-10z" style="display:inline;fill:url(#s);fill-opacity:1;fill-rule:nonzero;stroke:none"/><path d="m36.289 487.78-13.576 2.552 11.641 14.097c3.106-4.877 3.91-11.022 1.935-16.649z" style="display:inline;fill:url(#t);fill-opacity:1;fill-rule:nonzero;stroke:none"/><path d="m32.393 506.213-8.998-10.481-6.388 17.13c5.777.252 11.5-2.124 15.386-6.649z" style="display:inline;fill:url(#u);fill-opacity:1;fill-rule:nonzero;stroke:none"/><path d="m14.481 512.056 4.579-13.033-18.03 3.033c2.67 5.128 7.59 8.897 13.451 10z" style="display:inline;fill:url(#v);fill-opacity:1;fill-rule:nonzero;stroke:none"/><path d="m.466 499.465 13.576-2.551L2.4 482.816c-3.106 4.877-3.91 11.022-1.934 16.65z" style="display:inline;fill:url(#w);fill-opacity:1;fill-rule:nonzero;stroke:none"/><path d="m4.362 481.032 8.998 10.482 6.387-17.131c-5.776-.252-11.5 2.125-15.385 6.649z" style="display:inline;fill:url(#x);fill-opacity:1;fill-rule:nonzero;stroke:none"/><circle cx="18.377" cy="493.623" r="2.641" style="display:inline;fill:url(#y);fill-opacity:1;stroke:none"/><path d="M262.75 177.906c62.523-10.733 125.195-20.603 187.625-31.875C419.72 95.155 367.864 57.206 309.656 44.25L262.75 177.906Z" style="display:inline;opacity:.15;fill:#fff;fill-opacity:1;fill-rule:nonzero;stroke:none;filter:url(#z)" transform="matrix(.08254 0 0 .08254 -2.752 472.493)"/><path d="M327.031 222.844c40.524 48.788 80.415 98.102 121.406 146.5 28.721-51.924 35.594-115.91 17.782-172.719L327.03 222.844z" style="display:inline;opacity:.25;fill:#fff;fill-opacity:1;fill-rule:nonzero;stroke:none;filter:url(#A)" transform="matrix(.08254 0 0 .08254 -2.752 472.493)"/><path d="M253.688 479.313c59.785-1.051 118.43-27.006 158.75-70.875l-92.22-107.5-66.53 178.375z" style="display:inline;opacity:.15;fill:#fff;fill-opacity:1;fill-rule:nonzero;stroke:none;filter:url(#B)" transform="matrix(.08254 0 0 .08254 -2.752 472.493)"/><path d="M61.438 365.688c30.573 50.936 82.515 89.038 140.906 102.062l46.906-133.656-187.813 31.594Z" style="display:inline;opacity:.15;fill:#fff;fill-opacity:1;fill-rule:nonzero;stroke:none;filter:url(#C)" transform="matrix(.08254 0 0 .08254 -2.752 472.493)"/><path d="M63.25 143.219c-28.513 51.852-35.189 115.62-17.469 172.156l139.25-26.219L63.72 142.344z" style="display:inline;opacity:.25;fill:#fff;fill-opacity:1;fill-rule:nonzero;stroke:none;filter:url(#D)" transform="matrix(.08254 0 0 .08254 -2.752 472.493)"/><path d="M257.719 32.719C198.32 33.77 139.789 59.879 99.53 103.53l92.25 107.531 66.531-178.375z" style="display:inline;opacity:.15;fill:#fff;fill-opacity:1;fill-rule:nonzero;stroke:none;filter:url(#E)" transform="matrix(.08254 0 0 .08254 -2.752 472.493)"/><path d="M254.781 234.031c-17.879-.186-28.234 25.63-14.562 37.5 10.37 10.67 31.406 7.507 36.219-7.156 5.241-12.604-3.314-29.036-17.282-30.156a21.476 21.476 0 0 0-4.375-.188z" style="display:inline;opacity:.15;fill:#fff;fill-opacity:1;stroke:none;filter:url(#F)" transform="matrix(.08254 0 0 .08254 -2.752 472.493)"/><path d="M15.875 471.818c3.865-3.06 5.208-4.745 9.552-5.793 3.725-.899 7.021-1.676 13.79-.668 7.089 3.348 19.079 17.077 17.669 30.075-.749 6.903-4.188 9.858-6.671 13.445-2.312-2.518-3.232-5.235-4.165-7.95-.455-1.326.872-4.504 2.803-6.024-1.923-3.353-3.624-6.222-5.68-9.377-.22 1.733-1.295 1.909-2.46 3.556z" style="fill:#980101;stroke:none"/><ellipse cx="49.494" cy="510.411" rx="4.379" ry="4.564" style="fill:url(#G);fill-opacity:1;stroke:none"/><path d="M203.209 32.751c101.01 61.196 198.654 127.103 287.729 205.007l12.588-44.058L240.074 12.97Z" style="opacity:.5;fill:#000;stroke:none;filter:url(#H)" transform="matrix(.08254 0 0 .08254 -2.752 472.493)"/><path d="M526.004-86.836C701.53 93.387 741.596 267.338 658.18 435.572l142.066-121.386L672.566-72.45Zm8.992 149.26-17.982 131.275 106.998 77.328z" clip-path="url(#J)" style="fill:#760101;fill-opacity:1;stroke:none;filter:url(#I)" transform="matrix(.08254 0 0 .08254 -2.752 472.493)"/><path d="M274.242 24.66c62.22-96.564 191.476-100.952 308.41-122.286l-174.437-38.663L172.637-23.895Z" clip-path="url(#L)" style="fill:#b60101;fill-opacity:1;stroke:none;filter:url(#K)" transform="matrix(.08254 0 0 .08254 -2.752 472.493)"/><path d="M12.165 475.074c6.69.713 24.15 13.526 25.594 17.946 1.372-.877 3.305-1.896 3.484-4.165-6.733-9.263-14.956-15.613-25.519-17.416-2.115.467-3.303 1.96-3.559 3.635z" style="display:inline;fill:url(#M);stroke:none"/></g></svg>