<svg xmlns="http://www.w3.org/2000/svg" xml:space="preserve" width="1705.519" height="1561.105" viewBox="0 0 451.252 413.042"><path d="M144.198 331.61c-2.661-.421-9.236-1.917-12.795-2.91a492 492 0 0 0-7.843-2.113c-5.286-1.361-9.92-2.694-15.875-4.563a496 496 0 0 0-5.688-1.736c-1.746-.52-5.735-1.773-8.864-2.785-3.128-1.012-7.057-2.248-8.73-2.747-7.447-2.221-15.755-5.63-17.463-7.165-.368-.33-3.01-1.422-5.954-2.46-2.91-1.027-6.899-2.489-8.863-3.248a649 649 0 0 0-5.16-1.974c-7.922-2.956-10.233-5.844-8.728-10.911.835-2.81 2.115-3.37 8.596-3.759 2.692-.161 6.145-.404 7.673-.539s4.802-.379 7.276-.542c6.066-.4 21.27-1.764 24.871-2.231 1.6-.208 5.351-.632 8.334-.942 2.984-.31 7.979-.853 11.1-1.207 3.123-.353 6.3-.643 7.061-.643s2.493-.172 3.849-.383c3.165-.492 10.032-1.143 15.429-1.462 6.53-.386 16.38-1.276 22.225-2.01 6.907-.865 10.947-1.334 14.684-1.703 3.88-.383 9.344-1.02 21.432-2.497 5.311-.649 10.371-1.252 11.244-1.341a169 169 0 0 0 4.366-.539c1.528-.207 6.47-.797 10.98-1.31 4.511-.512 9.036-1.049 10.054-1.191s3.103-.38 4.63-.529c1.529-.147 3.857-.436 5.176-.642a73 73 0 0 1 4.498-.54c2.09-.166 5.183-.483 14.271-1.463 2.62-.283 7.144-.704 10.055-.936s6.839-.601 8.73-.82c4.65-.538 7.578-.832 11.51-1.158 1.82-.15 4.558-.44 6.086-.642 3.865-.512 6.155-.777 23.283-2.698 4.367-.49 7.586-.365 9.393.366.727.295 2.096.737 3.042.983s2.315.691 3.043.989c2.314.946 2.664.928 3.18-.159 3.968-8.362 23.522-10.742 37.963-4.622 16.259 6.891 20.314 11.32 12.693 13.859-3.187 1.061-3.46 1.301-1.78 1.554 1.123.17 2.573.498 11.312 2.558 2.546.6 5.642 1.314 6.879 1.584 1.237.271 4.035.918 6.218 1.439 2.182.52 5.259 1.17 6.836 1.445 4.673.812 6.524 2.172 6.13 4.507-.525 3.101-2.968 4.446-10.056 5.533-1.892.29-6.297 1.006-9.79 1.59a1789 1789 0 0 1-16.271 2.664c-3.235.513-18.703 3.041-26.591 4.348-2.183.361-6.826 1.153-10.319 1.759-3.492.606-6.647 1.13-7.011 1.165a7 7 0 0 0-1.19.23c-.469.147-9.83 1.743-39.027 6.654-4.584.771-8.691 1.46-9.128 1.53-3.185.515-25.16 4.283-27.384 4.696-1.528.284-7.303 1.299-12.833 2.256s-11.423 1.978-13.097 2.27a402 402 0 0 1-6.217 1.025c-3.249.504-8.941 1.479-13.89 2.378a202 202 0 0 1-4.631.786c-2.412.366-12.764 2.136-18.653 3.19-9.059 1.621-16.34 2.894-21.167 3.699-2.692.449-6.026 1.043-7.408 1.32-12.082 2.418-18.57 3.239-21.696 2.744m5-2.602c3.522-.154 11.44-1.358 20.003-3.044 2.183-.43 7.064-1.318 10.848-1.975 11.581-2.01 12.793-2.221 18.124-3.166a526 526 0 0 1 9.657-1.607c2.474-.381 7.475-1.23 11.113-1.886 7.188-1.297 8.475-1.519 21.299-3.672 4.73-.794 13.302-2.268 19.05-3.276 16.365-2.867 22.483-3.928 24.341-4.22.946-.149 4.816-.805 8.6-1.459 3.783-.653 8.843-1.5 11.244-1.883 8.903-1.417 20.329-3.317 23.151-3.85 1.6-.302 3.363-.609 3.917-.681s2.994-.485 5.424-.914 8.049-1.38 12.487-2.11c4.439-.729 9.44-1.56 11.113-1.846 6.303-1.076 7.916-1.34 12.038-1.973 2.329-.357 5.424-.883 6.88-1.17 3.588-.704 8.292-1.464 14.155-2.285 7.25-1.016 12.965-1.927 16.536-2.635 1.746-.346 3.949-.766 4.895-.933 2.015-.356 3.123-.969 3.785-2.094.495-.84.29-1.03-.598-.554-.455.243-2.078.471-10.595 1.488-1.965.234-5.358.72-7.541 1.08-2.183.359-5.874.941-8.202 1.293-2.328.353-5.603.877-7.276 1.165s-3.638.594-4.366.68-3.406.502-5.953.925a1159 1159 0 0 1-10.614 1.69c-3.29.508-9.899 1.634-14.684 2.501-4.786.868-9.296 1.655-10.024 1.749s-3.168.511-5.424.927c-2.255.416-6.601 1.132-9.657 1.59-3.056.46-9.545 1.475-14.42 2.256s-9.4 1.487-10.054 1.568c-2.913.363-8.902 1.234-9.287 1.35-.448.135-3.633.622-13.732 2.1-3.42.5-7.706 1.205-9.525 1.567-3.554.707-21.663 3.696-28.178 4.652-2.183.32-5.16.804-6.614 1.076-1.456.271-4.79.863-7.409 1.314-2.62.452-6.132 1.101-7.805 1.443s-4.888.94-7.144 1.328c-8.27 1.424-14.24 2.536-17.727 3.303-1.964.432-4.405.914-5.424 1.07-2.983.458-22.4 4.391-24.654 4.994-3.018.807-8.022.857-8.022.08 0-.256 2.089-.898 2.364-.728.12.074.797-.037 1.506-.245.71-.209 2.262-.5 3.45-.647s3.332-.563 4.763-.923c1.43-.361 4.09-.955 5.909-1.32s4.498-.906 5.953-1.202c1.455-.297 3.836-.775 5.292-1.063 1.455-.289 4.61-.938 7.011-1.444 2.401-.505 5.914-1.171 7.805-1.48s5.226-.924 7.409-1.368 5.397-1.018 7.143-1.276c1.747-.258 5.497-.894 8.335-1.413 2.837-.52 6.29-1.14 7.673-1.38a99 99 0 0 0 4.1-.798c.874-.2 2.898-.55 4.499-.777 3.815-.543 12.129-1.884 30.427-4.907 2.818-.466 9.791-1.512 15.875-2.381a309 309 0 0 0 6.085-.977c2.183-.371 4.862-.783 5.953-.916 1.902-.232 7.83-1.205 14.288-2.346 3.167-.56 5.707-.95 12.17-1.868 5.147-.73 17.758-2.853 31.221-5.254 2.547-.454 5.285-.93 6.086-1.057.8-.127 2.586-.416 3.969-.643 6.578-1.077 16.18-2.587 20.24-3.181 2.474-.363 7.95-1.188 12.171-1.835 9.79-1.5 16.376-2.305 20.317-2.481 4.926-.22 3.64-1.256-3.023-2.432a173 173 0 0 1-8.695-1.818c-2.401-.58-4.782-1.136-5.292-1.237-.509-.1-4.2-.994-8.202-1.987s-7.958-1.943-8.792-2.111c-2.292-.463-3.676-2.652-1.676-2.652 2.746 0 8.352-2.132 8.57-3.259.129-.674-.766-.554-1.82.244-1.779 1.345-2.287 1.437-9.465 1.704-3.736.14-7.805.297-9.042.35-8.03.348-15.373-.609-23.415-3.05l-7.673-2.329c-2.329-.706-5.72-1.61-7.537-2.007-1.817-.398-4.13-1.004-5.14-1.348-2.524-.858-1.004-.953-19.735 1.238-2.4.281-6.27.69-8.599.91-7.477.706-10.05 1.43-5.778 1.623 1.425.065 2.02.237 3.064.886.712.442 1.435.805 1.607.807.173 0 1.445.293 2.827.648l2.514.646 1.715-.796c.944-.437 1.927-.986 2.184-1.22.407-.368.702-.383 2.253-.116 1.469.253 2.09.236 3.505-.093 2.121-.493 4.579-.84 8.202-1.16 1.528-.134 3.433-.435 4.233-.669 1.368-.399 1.623-.393 4.234.098 1.528.288 3.254.602 3.836.7s2.217.703 3.634 1.348c2.327 1.059 3.017 1.235 7.144 1.822 2.512.358 5.163.816 5.89 1.02.728.202 2.574.572 4.102.822s3.48.678 4.34.951c.858.274 2.524.608 3.703.742 1.179.135 3.274.507 4.657.826 1.382.32 3.168.606 3.969.638.938.036 2.91.551 5.556 1.45 2.255.767 5.887 1.85 8.07 2.407 7.684 1.962 10.954 3.64 8.735 4.484-.381.145-1.134.612-1.672 1.038-1.087.86-2.257 1.219-4.814 1.474-1.956.196-7.637 1.122-13.097 2.135-2.038.378-4.776.85-6.086 1.048s-3.546.604-4.97.902-4.341.785-6.482 1.083-5.41.778-7.265 1.067c-1.854.29-3.644.458-3.978.374-.37-.093-1.169.11-2.052.52-.875.408-1.917.674-2.637.674-1.63 0-7.344.942-11.546 1.903-3.75.858-4.05.893-6.843.777-1.707-.07-1.78-.096-.926-.329a30 30 0 0 0 1.282-.374c.195-.067-.698-.65-1.985-1.294-3.177-1.592-4.588-2.82-4.588-3.993 0-.573-.165-.985-.463-1.153-.999-.563.033-.93 1.684-.598.832.167 2.535.308 3.784.313 1.468.006 2.505.143 2.932.388.979.559 2.519.477 4.895-.261 1.164-.362 2.414-.661 2.778-.665.664-.008 4.47-1.111 5.031-1.458.573-.354-.8-1.453-1.814-1.453-1.8 0-4.427-.592-5.958-1.343-2.298-1.127-2.882-1.162-6.27-.375-7.98 1.855-7.521 1.867-11.428-.29-2.335-1.29-6.234-1.438-12.898-.492-5.712.81-13.693.616-16.537-.403-1.21-.434-1.61-.446-4.72-.14-1.869.182-4.147.272-5.063.199-1.525-.123-1.762-.067-2.82.655-.635.435-1.602.935-2.147 1.113-2.241.73 1.248 2.568 4.384 2.31 3.559-.295 6.13-.668 8.459-1.229 2.94-.707 3.105-.773 3.318-1.337.16-.422.339-.382 1.896.42l1.72.886-1.72.013c-.947.007-2.553.251-3.571.542-2.349.672-7.05 1.499-9.79 1.723-1.164.095-4.186.525-6.715.955s-4.656.723-4.728.652c-.072-.072-.708.161-1.413.519-.95.481-1.712.65-2.944.655-2.003.007-8.484 1.592-9.214 2.253-.306.277-1.418.596-2.827.81-5.61.85-8.79 1.246-10.391 1.29-2.269.064-8.617.88-9.79 1.26-.583.188-2.731.277-5.806.24-4.297-.053-5.774.047-9.8.662l-.923.141.79.563c.435.31 1.18.98 1.655 1.489 1.553 1.662 13.066 1.09 12.411-.617-.106-.276.266-.231 1.557.189l1.697.551 3.774-.606c5.41-.868 6.958-1.22 6.884-1.566-.047-.223.102-.226.579-.009.517.236 1.32.128 4.128-.553 1.917-.466 4.306-.916 5.308-1 1.891-.158 2.127-.36 1.384-1.18-.685-.758-.352-.8 2.589-.331 3.838.612 5.787.396 8.536-.946 2.69-1.313 4.207-1.623 8.364-1.707 1.82-.037 4.498-.268 5.953-.512a265 265 0 0 1 6.35-.954c2.038-.28 4.955-.742 6.483-1.028s5.516-.835 8.863-1.22 7.931-.93 10.187-1.211c5.301-.66 5.339-.659 5.82.185.237.414.87.869 1.566 1.124 2.008.736 1.455 1.99-.904 2.05-.884.022-1.894.308-3.043.86-.946.454-2.047.825-2.447.825-1.124 0-.862.384.513.752 2.144.573 10.136 4.184 10.136 4.58 0 1.845-13.963 3.371-16.146 1.764-1.686-1.242-8.061-2.663-8.531-1.902-.286.462 3.168 2.784 4.619 3.106l1.394.31-.92.656c-.817.582-1.205.66-3.434.682-1.383.014-4.062.278-5.954.587-1.891.31-8.083 1.278-13.758 2.153-12.595 1.941-12.829 1.978-17.595 2.77-2.11.35-5.86.951-8.334 1.337-2.474.385-6.939 1.104-9.922 1.598-2.983.495-7.448 1.2-9.922 1.569-5.027.748-8.318 1.298-12.038 2.01-4.3.823-4.852.863-5.897.427-.53-.222-1.532-.485-2.23-.585-.696-.1-1.947-.466-2.78-.812s-1.691-.628-1.909-.628-1-.536-1.736-1.191c-.738-.655-1.534-1.19-1.77-1.19-.235 0-1.16-.347-2.056-.77-1.855-.876-1.773-.882-7.159.464-1.744.436-4.123.867-5.287.959-4.83.379-4.932.47-1.992 1.793 2.922 1.314 6.221 3.311 7.479 4.528l1.056 1.021 2.549.087c3.018.103 5.638-.28 6.457-.943l.589-.477-.661-.267c-2.753-1.114-8.866-2.753-11.894-3.19-4.293-.619-5.079-1.09-1.819-1.09 4.116 0 9.562 1.254 13.397 3.082 2.274 1.084 3.057 1.087 3.18.012.06-.527.213-.719.526-.658 1.533.295-.326 2.931-2.376 3.37-1.966.423-6.11 1.008-8.554 1.21-1.164.097-3.323.46-4.797.807s-4.153.88-5.953 1.186c-6.286 1.065-12.017 2.127-13.724 2.544-4.005.978-4.065.984-6.192.606-2.22-.395-2.273-.87-.135-1.212 1.858-.297 2.486-1.766.98-2.292-.48-.167-2.33-1.052-4.115-1.966-3.195-1.636-5.047-2.107-5.487-1.396-.35.566-1.477.191-5.556-1.848-4.67-2.335-13.811-6.38-17.967-7.95-1.469-.556-3.563-1.423-4.655-1.928-1.091-.505-3.71-1.541-5.82-2.302-4.587-1.654-7.581-2.991-8.38-3.742-.49-.46-.784-.522-1.773-.373-1 .15-1.43.056-2.727-.598-.847-.427-2.533-1.09-3.746-1.472-2.33-.734-4.541-2.043-4.541-2.687 0-.579-5.989-.554-6.82.028-.473.331-.858 1.44-.5 1.44 1.223 0 22.092 7.51 29.016 10.442 1.819.77 3.783 1.552 4.365 1.738.582.187 2.368.931 3.969 1.655s4.22 1.886 5.82 2.583c8.865 3.86 11.67 5.194 14.44 6.868 1.686 1.017 3.194 1.85 3.353 1.85.158 0 .506.446.773.992.567 1.16 2.374 2.258 4.52 2.745 1.211.275 1.389.399 1.389.963 0 .411-.121.6-.331.519-.182-.071-1.313-.51-2.514-.974-1.323-.512-3.127-1.522-4.58-2.565-1.318-.947-3.312-2.151-4.431-2.677s-2.392-1.211-2.829-1.524c-.436-.312-1.389-.782-2.116-1.045-.728-.264-3.169-1.313-5.424-2.332-7.107-3.21-21.932-9.35-24.739-10.244-.582-.185-2.487-.904-4.233-1.597s-5.14-1.94-7.54-2.77c-10.652-3.681-11.6-4.254-10.161-6.14.923-1.21 1.332-1.328 5.254-1.51 1.857-.086 3.472-.215 3.589-.287.278-.173 4.445-.993 9.387-1.85 2.183-.377 4.344-.805 4.803-.95.875-.277 4.055.876 7.08 2.567.8.447 1.444.633 1.847.531.423-.106 1.298.186 2.759.92 1.588.797 2.255 1.01 2.588.823.398-.222-1.393-1.641-2.072-1.641-.332 0-4.437-2.43-4.437-2.626 0-.611 1.46-1.594 2.603-1.752a22 22 0 0 0 2.538-.542c.718-.204 2.004-.372 2.86-.372 1.41 0 1.625-.078 2.327-.847l.774-.847 2.945 1.48 2.946 1.481 1.12-.495c1.926-.853 7.7-1.668 9.3-1.314.949.21 1.543.217 1.985.025.348-.15 1.584-.508 2.749-.793a904 904 0 0 0 3.704-.917c2.03-.508 5.883-.982 9.26-1.138 1.724-.08 2.789-.25 3.055-.488.264-.235 1.626-.458 3.837-.628 4.023-.31 7.329-.748 8.238-1.093.978-.372 2.934-.304 3.18.112.391.663 1.318.983 2.046.706.837-.318.877-.73.083-.863-.466-.078-.352-.17.528-.425.838-.243 1.264-.25 1.676-.03.43.23.65.21.993-.091.617-.54.861-.595 6.745-1.5 2.885-.444 5.742-.93 6.35-1.079.607-.15 2.295-.378 3.75-.507 1.456-.13 2.844-.312 3.085-.406.312-.121 1.244.574 3.254 2.429 2.946 2.718 4.284 3.487 6.097 3.507 1.158.012 3.775-.61 4.152-.986.322-.323-2.187-2.194-4.086-3.047-1.524-.684-1.823-1.15-1.283-2.002.27-.426 2.767-.895 8.591-1.613 2.31-.285 4.716-.715 5.347-.956 1.841-.703 2.65-.391 5.864 2.266 4.01 3.314 4.228 3.356 9.725 1.873 1.576-.425 2.792-.561 4.763-.534 1.455.02 3.122-.09 3.704-.246.582-.155 1.485-.284 2.006-.288 1.538-.01 1.408-.26-1.013-1.948-2.839-1.981-3.25-2.032-10.181-1.258-5.852.654-7.59.691-8.29.176-.673-.495-.38-.588 2.529-.802 1.237-.091 4.809-.516 7.937-.945 3.13-.43 6.347-.782 7.151-.783 1.667-.003 4.735-.346 8.614-.964 2.358-.375 2.754-.38 3.41-.036.63.33.928.337 1.962.046.672-.19 3.458-.591 6.192-.893s5.499-.729 6.143-.948c1.461-.496 2.017-.356 4.376 1.098 2.173 1.34 2.178 1.34 3.56.636.57-.29 1.434-.529 1.919-.529s1.78-.185 2.877-.412c1.098-.227 2.313-.376 2.7-.33 1.473.17-2.786 1.568-5.644 1.853-3.535.352-3.403.284-2.738 1.411 1.04 1.764 1.529 1.907 4.164 1.219 2.331-.608 9.758-.97 10.235-.5.43.425-.314.564-4.848.903-2.583.193-5.887.533-7.342.755s-3.599.402-4.763.4c-1.958-.005-6.535.624-7.104.976-.378.234.785.726 3.268 1.385 1.237.328 2.987.82 3.89 1.093 1.5.453 1.844.466 3.993.146 2.832-.42 2.99-.504 2.797-1.469-.208-1.041.18-1.171 1.707-.57 1.239.489 1.454.497 3.79.141 3.49-.531 6.735-.515 6.946.034.348.908-.09.986-4.532.811-4.856-.191-5.108-.077-2.658 1.2 3.632 1.896 12.638 1.433 19.237-.99 1.033-.378-6.81-3.89-10.527-4.713-1.646-.364-2.18-.63-3.44-1.718-1.74-1.501-2.7-2.034-4.147-2.305-.577-.108-1.347-.417-1.712-.686-.422-.312-1.518-.594-3.029-.779-2.864-.35-3.485-.566-3.716-1.294-.298-.938-1.123-1.036-4.24-.503-2.813.481-8.72 1.092-13.884 1.435-8.345.553-21.997 1.999-31.486 3.333-2.11.297-5.027.635-6.482.752s-4.849.512-7.54.879c-2.693.366-6.205.797-7.806.956-1.6.16-3.625.406-4.498.548s-3.85.505-6.614.807c-2.765.301-5.385.656-5.821.788-.437.133-1.33.238-1.985.235-1.524-.006-10.017.881-17.991 1.88-3.42.428-8.361 1.021-10.98 1.318-2.62.297-6.668.778-8.996 1.07-8.126 1.019-13.515 1.628-16.404 1.853-1.601.125-4.042.351-5.424.503s-4.18.288-6.218.303c-2.037.015-4.36.12-5.16.235-3.176.454-8.866 1.097-14.022 1.584a427 427 0 0 0-9.79 1.051c-2.401.296-5.973.725-7.937.953-1.965.23-4.875.6-6.466.824-1.592.225-4.51.45-6.483.5-1.973.052-5.647.335-8.164.63-5.161.604-16.178 1.503-21.353 1.742-3.01.138-6.899.493-8.82.803-1.353.219-2.16 1.653-2.16 3.836 0 3.293.725 3.728 15.742 9.429 2.91 1.105 6.093 2.41 7.071 2.902.979.491 1.846.893 1.927.893s.113-1.446.073-3.214l-.075-3.213-2.116-.896c-1.165-.493-3.308-1.3-4.763-1.793-5.68-1.925-13.194-5.169-14.01-6.047-1.026-1.103-.432-1.262 1.355-.366.703.353 4.493 1.921 8.422 3.485s8.632 3.47 10.45 4.237c3.71 1.563 14.768 5.549 18.353 6.616 1.29.384 3.612 1.243 5.16 1.908 1.548.666 4.124 1.537 5.724 1.936s5.411 1.629 8.467 2.733 8.235 2.98 11.51 4.167a715 715 0 0 0 8.07 2.884c1.163.399 4.914 1.796 8.333 3.106s7.23 2.69 8.467 3.068 2.675.979 3.195 1.335c.646.443 1.065.572 1.323.41.596-.378.871-.287.497.164-.864 1.041-1.107.998-7.06-1.25-3.168-1.197-6.832-2.551-8.141-3.01-4.856-1.704-13.572-4.874-16.008-5.823-1.382-.54-4.478-1.666-6.879-2.503a316 316 0 0 1-7.805-2.85c-3.468-1.337-6.801-2.438-7.381-2.438-.173 0-.456.53-.63 1.18-.596 2.229-2.47 2.197-6.39-.11-2.787-1.64-2.778-1.631-2.81-3.127-.022-1.091-.092-1.24-.554-1.176-.526.075-5.932-1.821-10.086-3.537-1.202-.497-2.303-.903-2.447-.903-.157 0-.261 1.214-.261 3.04v3.04l3.505 1.715c1.928.942 4.697 2.063 6.152 2.49s4.789 1.489 7.408 2.358c7.388 2.45 12.889 4.182 16.934 5.33 2.037.578 4.775 1.419 6.085 1.868 2.93 1.005 10.124 3.087 15.081 4.365a363 363 0 0 1 8.6 2.377c8.849 2.57 11.45 3.105 14.022 2.885.51-.043 2.522-.148 4.472-.233zm-5-7c-1.528-.405-12.6-4.013-24.606-8.018a14280 14280 0 0 0-27.517-9.158c-10.466-3.45-20.393-7.028-23.945-8.63-3.42-1.543-13.618-5.438-17.86-6.821-1.17-.382-1.535-.592-1.144-.657 1.104-.183 7.05 1.594 12.346 3.69a528 528 0 0 0 9.966 3.812c2.546.936 5.88 2.175 7.408 2.753s7.005 2.43 12.17 4.117c5.167 1.687 19.169 6.332 31.117 10.323 11.947 3.99 21.863 7.256 22.035 7.256.171 0 1.26.366 2.42.813 3.729 1.438 2.273 1.755-2.39.52m-67.006-34.245c-1.476-1.12.743-2.925 2.465-2.004.618.331.655.991.1 1.784-.472.675-1.814.79-2.565.22m235.28-4.486c0-.613 6.828-2.04 11.51-2.404 4.347-.339-1.475 1.28-7.011 1.949-1.383.167-2.96.373-3.506.459-.546.085-.992.084-.992-.004zM162.76 317.78c.527-.283 1.01-.464 1.07-.403.137.136 6.504-.797 9.148-1.34 1.06-.218 3.5-.58 5.424-.804 5.212-.607 6.806-1.037 6.806-1.835 0-.826-6.25-4.522-7.218-4.268-.854.223-1.994-.514-2.09-1.351-.1-.866-.714-.915-2.598-.206-.655.246-2.768.705-4.695 1.02-4.253.695-4.233.333-.202 3.817.519.448.514.458-.265.598-.584.105-.838.026-.971-.302-.274-.675-3.506-2.88-4.22-2.877-1.91.005-10.08 1.539-9.884 1.856.168.271 4.548 2.77 6.225 3.55.794.37 1.296.673 1.114.675-.396.003-.429.77-.073 1.705.316.832 1.086.884 2.429.165m-12.283-7.013c.694-.084 2.63-.447 4.304-.807s4.279-.836 5.789-1.06 2.825-.456 2.923-.516 1.95-.478 4.12-.929c2.168-.451 3.986-.863 4.038-.916s-.806-.595-1.91-1.204c-1.103-.608-2.373-1.416-2.822-1.794-.67-.564-.895-.63-1.252-.37-1.103.804-2.297 1.072-5.99 1.347-3.724.276-18.5 2.272-18.969 2.562-.52.321-.12.849 1.066 1.404.705.33 2.401 1.295 3.77 2.144l2.49 1.544.59-.626c.396-.42 1.007-.677 1.853-.78m59.901-2.53c1.256-.138 2.604-.373 2.994-.521s1.15-.27 1.685-.27c.537 0 1.75-.171 2.695-.383.946-.21 4.16-.749 7.144-1.196s6.853-1.042 8.599-1.324c4.01-.646 9.69-1.521 11.245-1.732.654-.09 2.143-.329 3.307-.532 3.337-.585 10.115-1.662 12.435-1.977 1.164-.158 3.784-.575 5.821-.926 6.147-1.058 13.614-2.226 16.14-2.523 2.719-.32 7.358-1.043 7.48-1.164.798-.8-4.329-3.285-7.94-3.849a44 44 0 0 1-3.409-.695c-3.577-.917-4.667-.167-2.349 1.616 2.523 1.942 1.328 2.161-1.441.265-2.117-1.45-2.154-1.451-8.48-.379-2.62.444-5.656.929-6.748 1.077a475 475 0 0 0-5.291.77c-1.82.274-4.677.629-6.35.788-3.1.294-3.872.408-13.626 1.998-3.056.498-7.878 1.267-10.716 1.71-14.778 2.3-17.34 2.73-20.505 3.43-4.613 1.022-5.41 1.11-6.35.7l-.794-.347 1.402-.188c.772-.104 2.778-.545 4.46-.982 3.86-1.002 8.173-1.763 20.2-3.565 5.184-.777 13.57-2.255 13.758-2.426.25-.227-1.456-1.393-2.25-1.538-.436-.08-3.38.336-6.548.925-3.797.706-6.507 1.07-7.966 1.07-2.088 0-7.002.786-8.306 1.328-.408.17-1.104.118-2.212-.166-1.521-.39-1.796-.381-4.696.145-1.694.307-4.806.723-6.916.923-3.746.356-8.07 1.516-8.07 2.165 0 .67 5.317 2.638 5.875 2.174.33-.273.467-.24.778.188 1.682 2.308 2.845 3.115 5.68 3.936 1.247.361 2.91.956 3.698 1.323 1.002.466 1.71.626 2.358.534.51-.073 1.953-.245 3.21-.383m-124.124-1.12c-.364-.162-1.472-.69-2.462-1.173-2.055-1.004-2.3-1.05-2.3-.437 0 .765.785 1.398 1.55 1.25.385-.074 1.175.043 1.757.259 1.298.481 2.502.565 1.455.1m53.446-.465c0-.73.127-.765 4.686-1.321 2.298-.28 6.44-.813 9.205-1.184 2.765-.37 6.158-.807 7.54-.969 4.357-.51 4.396-.756.424-2.703-1.68-.823-3.263-1.79-3.572-2.183-.476-.606-.69-.683-1.523-.548-.792.128-1.24-.003-2.448-.72l-3.729-2.208c-3.578-2.121-6.064-2.09-15.757.2-1.173.276-4.268.812-6.88 1.19-4.808.696-5.717.99-7.506 2.44l-.623.504 1.294.613c2.767 1.311 7.375 2.869 7.7 2.604.41-.333 3.913-1.1 8.84-1.937a435 435 0 0 0 9.128-1.691c7.122-1.403 7.811-1.49 7.61-.965-.162.422-2.035 1.057-3.938 1.334-.582.085-3.559.625-6.615 1.2-3.055.574-7.46 1.38-9.79 1.793-4.98.88-5.12 1.045-1.984 2.357 6.728 2.813 7.938 3.148 7.938 2.194m37.57-1.475c1.688-.54 2.91-.738 4.896-.798 2.296-.069 7.232-1.034 7.704-1.507.173-.173-2.228-1.674-3.474-2.172-1.953-.78-2.269-1.025-3.646-2.831-1.252-1.641-1.457-1.8-2.333-1.8-1.261 0-9.702.934-13.068 1.446-1.455.222-3.74.403-5.078.404-2.487.002-3.31.322-2.054.8 1.895.72 6.666 3.038 7.149 3.473.737.663 1.32.624 4.307-.29 3.661-1.118 11.847-2.494 11.277-1.895-.293.307-1.179.525-8.089 1.992-6.687 1.42-6.696 1.427-4.006 3.066 2.095 1.277 2.735 1.288 6.416.112m13.401-6.753c1.965-.63 3.332-.871 5.89-1.042 4.035-.268 6.647-.668 7.93-1.212l.958-.406-.926-.793c-1.8-1.541-2.202-1.649-6.35-1.696-4.026-.046-5.96.206-10.168 1.324-1.32.35-2.936.712-3.59.803-.655.091-1.53.23-1.943.31l-.752.145.752.797c2.564 2.716 4.166 3.062 8.2 1.77m-70.052-1.158c2.18-1.31 2.906-1.497 8.762-2.254 2.256-.29 5.054-.776 6.218-1.077a98 98 0 0 1 4.584-1.035c3.337-.66 3.39-.756.972-1.79l-2.989-1.285-1.665-.719-2.481.57c-1.364.314-4.24.695-6.392.848-2.15.152-4.452.438-5.113.633-1.995.59-7.34 1.695-10.993 2.27-1.892.3-3.618.61-3.837.69-.783.287 5.438 2.98 6.992 3.026.302.01 1.144.297 1.872.64 1.776.837 1.832.83 4.07-.517m43.236-.57c.09-.09-.246-.656-.748-1.256a56 56 0 0 1-1.788-2.281c-1.066-1.45-3.342-2.254-5.612-1.982-2.055.245-6.588 1.21-6.847 1.458-.54.514 5.126 3.463 7.59 3.95 1.32.261 7.167.35 7.405.112m7.86-.746c6.62-.692 6.517-.626 3.638-2.287a318 318 0 0 1-3.889-2.288c-2.323-1.394-2.585-1.413-6.619-.49-3.357.767-3.738.97-3.15 1.672.216.258 1.04 1.282 1.83 2.276l1.437 1.807 1.194-.117c.656-.064 3.157-.322 5.559-.573m70.011-1.075c6.928-.753 10.556-1.224 12.357-1.602.992-.209 2.533-.38 3.424-.38s2.878-.234 4.415-.522c1.536-.287 4.103-.702 5.704-.921 5.03-.69 6.55-.966 8.864-1.61 1.999-.555 2.507-.6 4.575-.395 2.37.235 3.147.129 4.553-.622.436-.233 1.21-.425 1.72-.426 1.038-.002 4.173-.518 7.937-1.307 1.382-.29 3.603-.71 4.934-.934 4.61-.775 7.148-1.805 6.467-2.626-.778-.938-12.665.38-39.58 4.389-1.89.282-4.57.61-5.952.73-1.383.119-4.419.698-6.747 1.287-5.609 1.419-17.819 3.767-19.513 3.753-.488-.004-.123.582.661 1.06 1.034.63 1.467.639 6.181.126m-58.167-.403c8.207-1.313 9.002-1.69 6.417-3.05-1.021-.536-2.399-1.452-3.06-2.034l-1.204-1.06-2.17.431c-1.194.237-2.849.43-3.678.43-1.916 0-7.68.75-7.967 1.035-.12.12 1.15.96 2.821 1.866s3.307 1.935 3.636 2.285c.724.771.958.776 5.205.097m120.447-.386c6.873-1.075 6.743-.905 2.14-2.792-1.793-.735-4.196-1.806-5.339-2.381l-2.078-1.045-2.058.273c-8.563 1.136-11.29 1.733-11.817 2.588-.327.528.52.699 4.336.874 4.083.188 6.55.77 9.371 2.213 1.513.773 2.055.8 5.445.27m-196.078-1.08c3.842-.522 11.38-2.022 11.957-2.379q.822-.509-1.204-.718c-.948-.098-2.688-.703-5.093-1.772-3.707-1.646-5.3-1.912-7.252-1.21-.204.074-2.475.493-5.047.933-7.68 1.311-7.688 2.448-.03 4.532 1.133.309 2.24.663 2.458.788.54.309.713.302 4.211-.174m43.182-1.711c6.688-1.826 6.651-1.823 8.32-.689l.933.634 2.038-.824c1.943-.786 2.216-.825 5.874-.845 5.9-.031 6.384-.266 4.432-2.15-1.863-1.796-4.552-2.344-6.277-1.279-1.835 1.135-10.41 2.005-11.12 1.129-.45-.554-.543-.57-1.366-.231-3.333 1.373-7.782 2.131-12.59 2.144-1.055.003-1.919.114-1.919.247 0 .496 3.501 2.229 3.946 1.953.297-.184.73-.118 1.478.224 1.283.587 3.329.485 6.251-.313m53.942.038c4.291-.478 6.27-.575 9.475-.46 2.36.083 4.332.036 4.726-.113 1.069-.407 10.433-1.606 11.208-1.436 2.22.487 12.031-1.148 11.773-1.963-.21-.659.495-.877 5.284-1.632 4.344-.686 4.482-.762 3.355-1.864-.985-.963-.975-.964-6.001.19-3.427.786-10.187 1.229-10.187.666 0-.57 1.103-.823 3.588-.823 3.087 0 8.62-1.038 10.568-1.982.727-.353 2.348-.826 3.601-1.051 1.254-.226 2.861-.587 3.572-.802s1.85-.394 2.53-.396c3.384-.008 7.822-1.132 7.563-1.916-.392-1.186-2.442-1.193-7.61-.027-.945.213-2.79.5-4.1.638-2.692.283-3.904.616-4.97 1.364-.434.304-.924.445-1.191.343-.536-.205-10.577.29-13.815.683-7.138.864-10.261 3.846-4.33 4.133 3.42.165 3.978.358 2.8.967-1.104.571-2.4.538-3.8-.096-1.72-.78-2.483-.674-6.764.947-5.051 1.913-5.211 1.935-6.983.938-2.15-1.21-3.299-1.382-6.144-.919-1.335.218-2.943.327-3.573.243-.962-.128-1.289-.043-2.042.532-.884.674-.927.68-3.22.4-7.631-.931-10.92-.906-12.18.093-.156.124 2.53 2.82 3.36 3.371 1.235.82 5.994.81 13.507-.028m119.682-.663c3.726-.877.477-2.718-7.32-4.149-4.43-.813-4.906-.177-1.487 1.989 3.223 2.041 6.203 2.772 8.807 2.16m-191.154-1.922 1.949-.484-2.124-1.646c-4.195-3.25-5.873-3.89-7.86-3l-1.059.474.993.481c2.077 1.008 1.26 1.69-1.243 1.037-1.108-.288-2.109-.353-3.502-.227-3.111.282-2.943.722 1.056 2.756l2.696 1.371 3.572-.138c2.113-.082 4.369-.337 5.522-.624m196.886.428c.509-.153 2.302-.38 3.987-.505 6.48-.48 6.64-2.132.4-4.124l-2.094-.668-2.14.771c-1.176.424-3.032.918-4.123 1.098-2.838.467-2.988.613-1.437 1.402.717.365 1.767 1.032 2.333 1.484 1.107.882 1.634.975 3.074.542m-184.454-1.034c.925-.134 1.755-.316 1.844-.406.176-.175-2.136-2.337-3.658-3.422l-.926-.66-3.837.402c-5.205.544-5.883 1.03-4.122 2.955l.905.988 2.865.15c4.717.247 5.177.246 6.929-.007zm34.963-.275c2.256-.291 4.899-.53 5.874-.53 2.493 0 4.755-.498 4.073-.896a96 96 0 0 1-2.419-1.55c-2.231-1.465-2.501-1.495-6.999-.758-1.673.275-4.302.582-5.841.683-3.79.25-3.854.316-2.06 2.109 1.733 1.733 1.48 1.7 7.372.942m164.4-.988c.815-.435 5.967-1.206 13.755-2.058 5.85-.64 5.901-1.644.187-3.61-1.022-.352-1.889-.92-2.854-1.874l-1.387-1.369-1.92.35c-4.062.738-4.659.813-7.742.974-1.747.092-4.187.377-5.424.636-1.237.258-3.35.625-4.697.816-2.5.354-2.734.47-2.066 1.024.21.174.325.463.256.643-.08.208.43.5 1.405.806 2.096.658 3.583 1.445 5.763 3.051 2.031 1.497 2.86 1.604 4.724.61m-6.435-3.419c-1.378-.212-2.985-.616-3.572-.897l-1.067-.512 1.058.12c.582.065 2.566.242 4.41.392 3.398.276 4.718.574 4.718 1.064 0 .375-2.524.299-5.547-.167m-186.572 3.308c1.76-.426 1.762-.5.054-1.883-2.347-1.9-5.29-2.683-6.637-1.767-.752.51 4.027 4.406 4.995 4.071.201-.069.915-.259 1.588-.421m69.794-.776c4.25-1.486 4.055-2.532-.454-2.432-3.02.066-3.402-.04-4.96-1.388-1.442-1.246-1.309-1.366.56-.51 2.757 1.262 5.205.77 3.508-.705-.352-.306-.711-.841-.799-1.19-.231-.922-2.63-.546-3.912.613-.45.407-.654.405-2.925-.022-1.872-.353-2.718-.399-3.63-.196-.655.145-2.847.455-4.872.688-4.965.572-4.968.575-2.425 2.757 2.937 2.52 4.263 2.856 7.845 1.987l1.74-.422 2.626.946c3.133 1.128 4.16 1.111 7.698-.126m-61.35.323c.583-.293 1.838-.554 3.097-.645 2.087-.15 4.727-.72 5.1-1.1.217-.22-2.631-2.888-3.644-3.414-.762-.396-5.503-.2-10.475.433-4.076.518-4.279.694-2.292 1.992a70 70 0 0 1 2.43 1.675c2.164 1.577 4.061 1.924 5.783 1.06m43.138-.003c-.148-.387-3.465-2.959-4.51-3.497-1.087-.56-4.012-.682-5.897-.249-.582.134-1.99.36-3.13.5-2.436.301-2.637.43-1.761 1.124 1.836 1.453 3.202 1.903 6.346 2.09 4.625.275 9.05.29 8.952.032m52.468-1.865c1.096-.504 2.539-.886 4.139-1.097 3.042-.401 3.135-.543 1.06-1.625-3.752-1.955-12.084-.479-10.357 1.836 1.287 1.724 2.777 1.98 5.158.886m-81.388-.546c1.16-.174 3.24-.533 4.622-.796 5.389-1.025 6.588-1.138 7.28-.684.586.383.84.366 3.302-.23 1.467-.356 4.002-.843 5.634-1.083 4.106-.604 4.203-.628 4.108-.996-.046-.18-.898-1.082-1.895-2.005l-1.811-1.678-1.496.133c-.823.072-2.687.392-4.142.71-1.561.342-3.27.544-4.167.493-1.306-.073-1.522-.02-1.522.378 0 .255-.163.463-.364.463-.773 0-.986.69-.323 1.044.65.348 1.414 1.492 1.164 1.743-.305.305-2.843-.486-5.16-1.608-2.722-1.318-2.89-1.352-3.737-.758-.637.446-1.553.52-7.388.593-4.123.052-4.07-.03-1.348 2.16 2.975 2.396 3.875 2.918 4.568 2.655.312-.119 1.515-.359 2.675-.534m194.197-1.074c1.018-.297 2.863-.651 4.1-.786s3.202-.505 4.366-.822c1.83-.5 5.095-.908 7.983-1 4.88-.153 2.158-2.432-5.602-4.687a328 328 0 0 1-7.37-2.275c-4.028-1.299-4.243-1.34-5.458-1.028-1.155.296-1.4.268-2.817-.318-2.232-.924-2.848-1.048-5.654-1.138-3.243-.104-4.139-.23-5.398-.765-1.127-.479-4.534-1.192-5.694-1.192-.679 0-3.714 1.766-3.721 2.165-.036 1.918 8.062 3.322 11.759 2.039 2.205-.765 2.583-.82 4.824-.687 3.673.216 4.072.699.587.709-2.92.008-4.963.486-6.654 1.557l-.777.492.751.594c1.596 1.262 13.638-.369 12.534-1.698-.43-.52-.103-.515 1.347.016.637.233 2.002.513 3.033.622 1.466.155 2.404.467 4.288 1.426 2.171 1.104 2.645 1.242 4.74 1.379 3.975.258 4.504.614 1.761 1.183-1.411.293-1.563.27-3.236-.498-.966-.443-3.006-1.1-4.534-1.46s-3.135-.792-3.571-.96c-.858-.328-2.642-.138-7.592.81-1.41.27-3.649.574-4.975.674s-2.315.27-2.198.379 2.296 1.244 4.843 2.523c2.546 1.28 4.914 2.543 5.26 2.807.787.598.822.598 3.075-.06m-139.296-2.002c3.924-1.299 4.007-1.381 2.29-2.269-1.387-.716-2.85-.738-7.722-.114-4.435.567-4.545.639-3.137 2.047 1.908 1.907 3.618 1.974 8.57.336m-25.148-.781c2.073-.229 4.072-.53 4.444-.672l.675-.257-.997-1.02c-2.195-2.249-5.386-3.146-9.532-2.681-2.57.288-2.523.156-.801 2.257.807.984 1.587 2.014 1.734 2.289.32.597-.116.59 4.477.084m106.815-.404c.209-.209.444-.206.85.011.634.34 1.358.245 5.184-.68 4.461-1.08 4.434-.993.794-2.537l-3.155-1.338-1.994.467c-6.054 1.417-6.694 1.774-5.104 2.847 2.125 1.435 2.931 1.724 3.425 1.23m-68.289-.52c1.51-.526 1.898-.536 4.341-.107.686.12 1.474-.049 3.043-.655 4.56-1.763 14.156-3.074 15.498-2.118 1.227.873 3.35 1.024 8.05.57 2.763-.266 3.307-.182 3.307.51 0 .717 1.019 1.022 3.39 1.018 5.7-.012 1.968-2.367-6.697-4.227-1.31-.28-3.301-.775-4.425-1.098-1.918-.55-2.074-.56-2.535-.143-.326.296-.95.445-1.861.445-.755 0-2.498.18-3.875.402s-3.928.511-5.669.644c-3.54.268-4.257.517-4.257 1.476 0 .87-1.401.92-2.292.083-.86-.809-3.554-.733-6.344.179-3.863 1.262-8.56 1.128-9.087-.259-.323-.849-1.667-1.895-3.77-2.935l-1.836-.907-2.567.386c-1.412.212-4.225.569-6.251.794-2.027.224-3.787.51-3.911.634-.205.206 2.972 2.622 4.554 3.463.796.424 5.386.18 7.956-.424 3.736-.878 4.776-.817 4.568.27-.377 1.975 6.852 3.33 10.67 2m94.978.266a25 25 0 0 0 3.05-.78c1.094-.369 2.508-.53 5.424-.62 2.17-.065 4.54-.243 5.267-.395.728-.151 1.9-.35 2.607-.444l1.284-.169-1.776-1.038c-2.035-1.189-2.285-1.212-6.877-.635-1.747.22-5.319.513-7.938.651-2.751.146-5.862.48-7.368.79-2.972.613-3.58.664-3.184.268.148-.148 1.284-.447 2.523-.663 3.011-.526 5.568-1.401 4.175-1.43-1.218-.024-3.474-.697-5.1-1.52-1.112-.563-1.434-.616-2.456-.397-1.466.312-2.63.061-3.961-.855l-1.033-.71 1.323.135c4.974.51 5.857.455 12.435-.768a79 79 0 0 1 4.63-.676c3.079-.345 5.886-1.718 4.563-2.23-1.59-.616-3.38-.622-8.002-.027-1.046.135-1.102.119-.463-.135 1.453-.576.605-1.433-1.697-1.717-.776-.095-3.436-.694-5.91-1.33-6.992-1.798-8.863-2.016-8.863-1.035 0 .476 2.318 2.13 3.307 2.359.436.1 1.495.611 2.352 1.135l1.559.951 3.336-.334c2.227-.223 3.644-.25 4.262-.082.858.233.771.265-1.19.439-1.165.103-3.13.47-4.366.815-1.237.345-3.18.744-4.318.885-1.58.197-2.226.405-2.733.882-1.266 1.19-5.195.665-7.45-.996-1.64-1.207-7.788-1.182-9.007.037-.242.242 4.558 2.51 5.312 2.51.213 0 .613.25.89.556.726.801 1.644 1.217 3.744 1.695 1.018.231 3.02 1.02 4.447 1.75l2.595 1.33 2.201-.184c2.214-.184 2.645-.024 1.805.673-.539.448-.5 1.257.067 1.405.944.247 9.019.173 10.534-.096m-25.22-7.395c.511-.32 2.845-1.063 2.845-.906 0 .21-1.497.851-2.38 1.019-.728.138-.828.113-.466-.113m-21.44 6.069c3.841-.397 4.082-.458 3.623-.91-.652-.64-4.504-2.04-5.24-1.903-5.363 1.002-5.96 1.186-5.53 1.705 1.162 1.408 2.397 1.6 7.147 1.108m53.325-3.656c2.873-.276 2.877-.252-.341-1.875-3.224-1.626-3.92-1.659-9.123-.43-3.88.917-3.415 1.953.912 2.035.737.014 1.936.184 2.664.379.727.194 1.858.296 2.513.227.655-.07 2.174-.22 3.375-.336m-83.338-1.615c5.738-.365 5.91-.636 2.106-3.34-1.137-.81-1.028-.804-6.677-.38-5.466.41-5.246.296-3.685 1.904 1.332 1.373 3.143 2.432 3.77 2.206.192-.07 2.211-.245 4.486-.39m16.198-1.466c1.82-.215 4.141-.486 5.16-.603l1.852-.211-1.275-.78a51 51 0 0 1-2.797-1.891l-1.522-1.112-2.098.36c-2.816.485-11.68 1.287-12.163 1.101-1.335-.512.13.918 2.657 2.594l1.852 1.228 2.514-.148c1.382-.081 4.001-.324 5.82-.538m46.511-1.746c2.694-.62 2.84-.829 1.226-1.748-.88-.501-1.441-.592-3.683-.6-2.622-.008-3.838-.269-2.911-.624.242-.093 1.056-.178 1.808-.188 2.84-.039 2.808-.524-.116-1.815-1.293-.572-7.005-.294-11.162.544-1.189.239-1.776.235-2.619-.017-1.098-.33-1.632-.255-5.836.811-1.62.411-1.18.875 2.161 2.275 2.415 1.013 7.632.347 6.641-.847-.423-.51-.272-.506 1.064.029.83.332 1.524.391 3.007.257 2.105-.191 2.979-.029 2.56.475-1.214 1.463 3.791 2.385 7.86 1.448m60.193-4.947c.898-.746-1.016-2.176-6.956-5.193-11.394-5.79-19.677-7.343-29.104-5.457-5.212 1.043-12.17 4.302-12.17 5.7 0 .793 13.152 4.908 16.8 5.256 3.133.3 31.028.028 31.43-.306m-268.364 6.047c-10.23-2.626-17.457-4.454-19.169-4.847-.905-.207-5.18-.309-13.242-.314l-11.907-.007-2.38-.752c-10.001-3.162-13.65-8.987-15.519-24.78-.463-3.917-.362-20.757.16-26.59.221-2.474.404-5.02.406-5.657l.003-1.158-3.373.168c-1.856.093-8.374.29-14.486.437s-14.804.384-19.315.527c-21.768.692-29.476.82-30.075.5-.439-.236-.617-.24-.692-.015-.156.468-1.253.368-5.24-.478-7.922-1.681-9.603-2.617-11.297-6.285l-.585-1.269-.07-135.958c-.048-97.145.014-136.263.22-137.025.912-3.39 12.693-9.692 15.439-8.26.53.277.858.318 1.045.131.678-.678 2.195-.475 19.481 2.61 13.884 2.477 20.695 3.674 22.622 3.976.873.136 3.671.622 6.218 1.08 6.435 1.157 6.045 1.089 15.61 2.734 8.95 1.54 26.368 4.54 32.544 5.606 1.964.34 5.655.975 8.202 1.412s6.714 1.166 9.26 1.62c8.005 1.43 10.32 1.834 15.214 2.66 2.62.44 7.084 1.225 9.922 1.742s6.171 1.097 7.408 1.288 7.547 1.314 14.023 2.495 14.81 2.686 18.521 3.345c3.71.659 8.295 1.485 10.186 1.836 1.892.35 5.226.945 7.409 1.322a552 552 0 0 1 9.922 1.853c3.274.643 8.215 1.587 10.98 2.098 2.765.512 7.944 1.48 11.51 2.153 3.564.673 8.03 1.5 9.921 1.839s7.31 1.346 12.039 2.238c14.338 2.706 19.814 3.73 23.415 4.377 9.171 1.65 19.894 3.656 25.268 4.729 3.274.653 8.572 1.678 11.774 2.277 3.201.598 6.654 1.256 7.673 1.462 2.111.427 6.532 1.219 15.478 2.772 3.42.593 7.408 1.31 8.863 1.592 3.697.716 8.413 1.534 12.304 2.134 3.429.53 4.118.824 5.143 2.196l.545.731.067 105.244.067 105.244-.79 1.09c-1.377 1.902-1.125 1.86-13.146 2.174-10.27.268-23.206.75-35.41 1.317-4.944.23-37.611 1.317-51.594 1.716-2.91.084-11.364.269-18.786.412-21.075.406-31.938.731-32.169.964-.198.2-.343 2.846-1.049 19.132a720 720 0 0 1-.535 10.583c-.14 2.255-.33 5.56-.423 7.342l-.169 3.241 1.695.002c.932.001 3.242.185 5.134.409s5.642.635 8.334.916c5.164.538 13.96 1.526 21.035 2.363 2.328.276 6.733.753 9.79 1.06 14.192 1.428 14.532 1.49 16.036 2.92l1.029.98v2.174c0 3.423-.498 3.784-5.86 4.25-1.797.156-3.983.396-4.856.534-1.326.21-5.553.74-11.51 1.442-.654.077-3.69.384-6.746.682-7.923.772-17.656 1.806-19.976 2.123-1.092.15-3.592.439-5.556.643-1.965.204-7.74.849-12.833 1.432s-10.094 1.136-11.112 1.228-3.162.34-4.763.549-4.934.614-7.408.9-6.343.764-8.599 1.061-5.656.71-7.557.916-4.997.565-6.88.798c-17.26 2.131-17.02 2.135-26.838-.386zm11.57-.007c.986-.145 4.53-.51 7.877-.812s7.276-.719 8.731-.926c1.455-.206 4.134-.553 5.953-.77 1.82-.217 5.213-.636 7.541-.931 5.017-.636 14.232-1.73 19.05-2.26 1.892-.209 4.868-.555 6.615-.769a893 893 0 0 1 19.314-2.134c3.638-.364 8.103-.83 9.922-1.036s5.331-.57 7.805-.811c2.474-.24 7.95-.841 12.171-1.336s10.461-1.207 13.869-1.583c6.588-.728 7.049-.844 7.443-1.88.667-1.754-.014-4.104-.925-3.193-.576.576-.66.591-6.76 1.237-2.839.3-8.315.9-12.172 1.335-3.856.433-10.94 1.206-15.742 1.717l-12.436 1.323c-3.412.363-7.64.869-15.478 1.85-3.327.417-8.116.925-16.272 1.725-6.517.639-11.93 1.205-16.272 1.704-1.819.208-5.212.569-7.54.8-20.023 1.993-21.672 2.26-21.957 3.558-.23 1.049-.482 1.024-.883-.087-.202-.557-.597-1.006-1.046-1.186-1.038-.416-9.23-2.61-12.495-3.347a1229 1229 0 0 1-7.408-1.71 854 854 0 0 0-11.245-2.512c-7.973-1.724-13.87-3.135-15.461-3.7-4.793-1.705-5.676-1.391-5.358 1.901.104 1.08 2.663 1.974 9.659 3.375 2.5.5 6.689 1.515 9.308 2.255 2.62.74 8.037 2.178 12.039 3.195 9.913 2.52 15.988 4.141 17.727 4.733 1.743.593 2.111.616 4.427.275m5.43-6.203a529 529 0 0 1 9.59-1.06c9.265-.907 12.765-1.268 20.638-2.133 4.511-.495 9.631-1.032 11.377-1.193 4.146-.382 15.311-1.657 21.828-2.491 2.838-.364 7.422-.902 10.187-1.198s7.11-.77 9.657-1.054 7.899-.826 11.893-1.2c3.994-.376 7.507-.736 7.805-.801s2.388-.242 4.644-.393c4.06-.271 11.154-1.026 11.342-1.206.19-.182-1.207-.348-5.39-.641-4.867-.342-17.797-1.55-18.388-1.718-.218-.062-1.825-.242-3.571-.4a146 146 0 0 1-5.954-.676 495 495 0 0 0-17.065-2.11c-3.493-.375-6.807-.753-7.364-.84l-1.014-.159.088.871c.12 1.196-.359 1.265-1.478.213l-.933-.877.629-11.245c.346-6.184.76-14.578.92-18.653s.347-8.42.414-9.657c.175-3.225.61-3.02-5.987-2.81-3.106.1-12.316.355-20.465.566-16.354.425-32.775.932-32.858 1.015-.03.03.057.526.19 1.104.135.578.247 2.242.251 3.697.014 5.565 1.408 26.721 2.519 38.232.218 2.256.396 4.25.396 4.432.001.477 2.152.424 8.168-.202 2.817-.292 8.234-.773 12.038-1.067a4469 4469 0 0 0 16.705-1.318 789 789 0 0 0 7.672-.66c2.329-.214 5.834-.456 7.789-.539s3.78-.271 4.055-.419c.643-.344 1.29-.099 1.092.415-.278.724-4.21 1.17-24.71 2.8-14.882 1.184-17.075 1.366-24.077 2.003-4.001.364-7.71.73-8.243.813-.776.122-1.02.052-1.236-.352-.734-1.371-2.33-18.172-2.95-31.041-.249-5.164-.472-8.749-.958-15.412l-.169-2.315h-4.59l-.451 3.638c-.52 4.194-1.218 11.295-2.165 22.02-1.948 22.072-.225 19.775-15.882 21.178-4.948.443-10.842.973-13.097 1.178-2.256.205-5.709.443-7.673.528s-4.286.227-5.16.315l-1.586.158 1.435.633c1.266.559 4.422 1.303 11.132 2.627 9.512 1.875 23.551 5.237 33.537 8.031.036.01 2.477-.272 5.424-.627m-6.02-12.63c-3.07-1.716-4.345-4.451-2.073-4.451.956 0 3.39 1.01 3.994 1.656 1.746 1.87.27 4.018-1.92 2.794m-38.497 12.012.926-.248-.721-.294c-1.363-.554-4.052-.843-10.259-1.103-19.374-.81-23.835-11.652-20.876-50.735.375-4.953.31-5.302-.928-4.991-.853.214-.84.145-1.263 7.041-2.177 35.553 2.503 48.754 17.908 50.518 2.583.296 13.93.156 15.213-.188m-12.17-2.937c0-.127-.367-.304-.815-.394-2.557-.511-3.228-1.466-3.264-4.638-.04-3.626.87-4.26 6.12-4.263 1.86-.001 4.692-.114 6.293-.251s4.994-.375 7.54-.53c4.573-.276 11.251-.832 16.14-1.343 1.383-.144 4.536-.43 7.008-.636 4.289-.357 4.522-.405 5.084-1.058.826-.961.71-1.1-2.769-3.323-10.52-6.72-23.877-24.022-28.979-37.54l-.437-1.16-5.63.164c-3.097.091-9.458.242-14.137.335-10.076.2-8.922-.323-9.303 4.225-2.486 29.63.364 44.945 9.117 48.98 2.57 1.186 8.032 2.16 8.032 1.432zm44.979-17.049c0-.816-.861-1.571-4.595-4.028-7.33-4.822-18.223-19.443-23.602-31.679-1.124-2.556-1.296-2.81-1.675-2.471-.233.208-.7.418-1.037.468-1.558.229 8.081 16.552 14.662 24.828 6.236 7.844 16.247 15.78 16.247 12.882m.245-6.814c.01-.81.137-2.12.28-2.91.145-.79.503-4.474.796-8.185.65-8.212.959-11.562 1.463-15.875.212-1.819.387-3.766.388-4.327l.002-1.02-3.77.17c-3.88.174-22.423.674-25.135.677-2.035.003-1.933.55 1.133 6.088.685 1.237 1.93 3.499 2.767 5.027 5.763 10.518 13.526 19.483 19.896 22.975l1.802.987.179-1.067c.098-.587.188-1.73.198-2.54zm-136.226-31.42-1.365-1.238-.114-84.27c-.062-46.348-.19-109.392-.285-140.097-.201-65.015-.316-56.91.825-58.078.842-.862 1.185-1.585.753-1.585-.153 0-2.07.912-8.985 4.276-1.18.574-2.548 1.46-3.043 1.97l-.898.927-.072 134.724c-.044 82.375.024 135.536.175 136.813.404 3.408 1.275 4.02 7.81 5.48 2.922.652 3.692.933 4.92 1.797 1.873 1.318 2.043.88.279-.72m14.008.225c10.143-.389 23.772-.771 42.598-1.196 9.531-.215 18.878-.458 20.77-.538s11.893-.325 22.225-.542c34.955-.735 46.105-1.03 64.293-1.702 3.784-.14 14.202-.374 23.151-.522s20.856-.39 26.459-.54c5.602-.148 18.7-.45 29.104-.669 18.385-.387 36.225-.9 50.006-1.436 3.71-.145 10.14-.389 14.288-.543s9.981-.394 12.964-.534c8.647-.403 20.035-.762 30.03-.947 5.094-.095 9.479-.284 9.745-.42.68-.351.594-210.257-.087-210.92-.241-.234-2.11-.652-4.763-1.065-9.423-1.465-12.685-1.996-15.61-2.538-1.674-.31-4.71-.845-6.747-1.188a261 261 0 0 1-6.35-1.153 971 971 0 0 0-7.673-1.48 4258 4258 0 0 1-16.14-3.068c-2.328-.448-4.828-.919-5.556-1.046-3.842-.672-24.45-4.554-26.723-5.034l-3.042-.642c-.219-.045-1.29-.226-2.382-.402-2.48-.398-6.209-1.08-18.917-3.455-5.53-1.033-10.71-1.982-11.51-2.107s-4.73-.887-8.731-1.693c-4.002-.806-11.384-2.19-16.404-3.077s-10.021-1.8-11.113-2.03a72 72 0 0 0-2.778-.539c-1.825-.277-13.156-2.283-19.05-3.373-5.492-1.016-17.077-3.101-29.5-5.311a4912 4912 0 0 0-31.883-5.538 4848 4848 0 0 1-15.346-2.634 8318 8318 0 0 0-9.922-1.732c-3.42-.595-6.396-1.135-6.614-1.2-.219-.066-6.767-1.193-14.553-2.505-7.785-1.312-15.762-2.671-17.727-3.02-4.223-.751-12.66-2.261-17.859-3.197-2.037-.366-7.574-1.319-12.303-2.117s-10.445-1.809-12.7-2.246c-5.116-.994-6.251-1.03-6.385-.206-.054.328-.025 18.277.064 39.886.09 21.61.167 84.952.173 140.759s.024 101.706.04 101.997c.06 1.04.463 1.281 2.449 1.464 2.9.266 3.02.266 10.009-.001zm1.33-10.78c-2.834-.048-5.235-.175-5.337-.28-.412-.428-.36-263.037.051-263.429.322-.305.685-.309 2.236-.025 1.019.186 3.34.593 5.16.905l7.937 1.365c2.547.44 8.124 1.391 12.395 2.115s10.164 1.783 13.096 2.353c5.021.977 13.798 2.466 21.87 3.712 4.173.643 34.8 5.877 38.1 6.51 1.236.237 2.963.528 3.836.647 4.42.598 24.33 3.97 41.407 7.01 4.364.778 17.413 2.98 26.723 4.51 1.382.226 5.252.891 8.599 1.476a3496 3496 0 0 0 22.093 3.809l15.61 2.65a945 945 0 0 1 13.89 2.491 837 837 0 0 0 14.156 2.515c4.002.669 9.36 1.616 11.906 2.105 7.718 1.481 10.495 1.976 15.743 2.805 2.765.437 6.813 1.139 8.996 1.56 5.371 1.036 12.603 2.287 16.14 2.793 3.902.557 8.4 1.314 13.36 2.246 4.264.802 9.662 1.682 12.172 1.983.8.096 2.864.408 4.585.694s3.985.627 5.028.758c3.955.496 3.614-5.446 3.621 63.218.006 59.094.384 118.866.793 125.436.542 8.718.615 11.555.302 11.749-.796.492-4.18.669-15.447.81-6.734.083-15.399.267-19.255.407-3.857.14-12.131.377-18.389.525s-15.901.391-21.431.54c-5.53.147-18.686.447-29.237.666-10.55.218-23.409.542-28.575.72s-15.286.327-22.49.333c-7.202.006-16.549.151-20.769.322s-17.734.436-30.03.588c-12.297.152-32.061.399-43.921.548s-31.148.381-42.862.514-24.812.285-29.105.338-10.123.056-12.957.008zm28.435-1.272c9.023-.08 26.406-.315 38.63-.52 12.223-.207 29.25-.443 37.835-.525 34.464-.329 41.508-.409 46.964-.534 3.128-.072 13.427-.207 22.886-.3 9.459-.092 17.474-.271 17.81-.398.337-.127 2.332-.231 4.433-.231s9.148-.176 15.66-.39c6.511-.215 17.554-.515 24.539-.667s16.926-.39 22.092-.531c5.166-.14 14.93-.377 21.696-.526 6.767-.148 15.518-.343 19.447-.433 3.93-.09 9.227-.2 11.774-.243 14.819-.254 19.743-.38 20.381-.52l.715-.156.135-3.36c.074-1.849.095-3.431.046-3.517-.125-.218-39.105-.06-66.388.268l-34.66.417c-6.55.078-23.277.257-37.175.396-25.297.253-50.976.583-83.211 1.07-9.459.144-27.318.335-39.688.426-14.124.104-22.612.262-22.82.426q-.332.26-.671-.022c-.241-.2-3.199-.204-10.12-.012-33.423.925-35.723.968-36.019.671-.12-.121-.212-56.588-.203-125.482l.017-125.261-1.075-.296c-1.465-.404-5.258-.966-5.527-.82-.152.083-.079 260.38.073 261.141.007.037 1.858.067 4.114.067 4.577 0 4.538.02 3.572-1.783-1.609-3.002.794-5.863 4.954-5.899.55-.005 1.654-.239 2.454-.52 3.984-1.402 3.772.317-.338 2.737-1.342.79-2.667 1.689-2.944 1.996l-.504.558h1.156c.636 0 2.252-.203 3.59-.45l2.432-.451.18-1.443c.517-4.13 1.168-2.503.754 1.881-.187 1.974-.886 2.63-.886.83 0-.932-.022-.952-.86-.81-.473.08-1.872.278-3.109.44-1.237.163-2.725.423-3.307.578s-1.452.276-1.933.268c-.849-.013-.873.016-.794.96.103 1.237.604 1.371 4.579 1.224 1.6-.059 10.292-.173 19.314-.254m-9.002-1.273c-2.023-.925-1.913-4.81.18-6.343 3.478-2.548 8.518 1.21 6.55 4.885-.685 1.283-5.047 2.227-6.73 1.458m3.713-1.386c1.803-.856 1.86-2.962.1-3.667-2.235-.894-3.498-.232-3.498 1.833 0 2.036 1.39 2.786 3.398 1.834m6.342-.29c-1.072-1.072 3.092-1.73 6.157-.972.476.118.596.035.596-.41 0-.54-.118-.559-3.424-.559-1.883 0-3.485-.098-3.56-.218-.24-.39.147-1.337.595-1.456q.444-.117-.16-.147c-.641-.033-.721-.215-.351-.8.296-.467 7.253-.235 7.852.262.67.557.47 1.383-.29 1.193-1.003-.252-.8.28.396 1.034 1.04.657 1.278 1.227.818 1.955-.37.584-8.058.69-8.629.119m14.426.263c-2.958-1.164-1.129-6.16 2.14-5.846 1.657.16 3.94 3.5 3.245 4.747-.306.546-4.576 1.418-5.385 1.1m1.058-3.526a.265.265 0 0 0-.265-.265.265.265 0 0 0-.264.265c0 .145.119.264.264.264s.265-.119.265-.264m120.33 3.213c-2.04-1.02-2.572-4.372-.87-5.487.995-.652 2.596-.78 3.127-.25.82.821.556 1.2-.838 1.2-.906 0-1.41.143-1.72.485-.953 1.053-.303 1.78 1.32 1.475 1.507-.282 2.2.887 1.293 2.182-.543.776-1.293.904-2.311.395m5.695.103c-1.944-.844-2.477-4.382-.879-5.828.676-.612 2.934-.62 3.86-.012 1.706 1.117 1.896 5.705.243 5.832-.291.022-.946.115-1.455.207a3.27 3.27 0 0 1-1.77-.199m2.576-2.133c.905-.468.93-.576.345-1.455-1.283-1.926-3.004-1.823-3.004.178 0 1.6 1.054 2.107 2.659 1.277m3.955-1.036c0-3.185.07-3.393 1.047-3.137.589.153.604.23.446 2.17-.19 2.343-.025 3.2.619 3.2.582 0 .83-1.634.553-3.65-.19-1.393-.188-1.402.49-1.323.622.072.702.225.917 1.736.425 2.981-.301 4.02-2.815 4.028l-1.257.004zm5.755 2.58c-.561-.146-.633-2.802-.118-4.315.639-1.871 3.624-1.203 3.624.811 0 1.323-.421 1.835-1.509 1.835-1.001 0-1.016.302-.022.454.872.133.928.337.244.892-.601.487-1.237.58-2.22.324m1.918-3.389c0-.22-.235-.397-.53-.397-.293 0-.528.177-.528.397s.235.397.529.397.53-.176.53-.397m4.865 2.448c.097-.671.007-1.704-.223-2.559-.481-1.794.713-2.762 1.92-1.556.39.39.424 2.329.04 2.329-.17 0-.212.343-.107.903.262 1.394-.04 2.007-.987 2.007-.797 0-.804-.012-.643-1.124m-2.045.661c-.067-.11-.201-1.025-.299-2.036s-.287-2.045-.423-2.298c-.384-.719-.3-.83.48-.635 1.018.256 1.118.522 1.122 2.985.004 2.05-.35 2.848-.88 1.984m-137.386-1.158c.307-1.921 1.093-2.63 1.957-1.766.9.9-.085 2.858-1.436 2.858-.667 0-.688-.045-.52-1.092m253.167-2.341c-1.557-.37-2.356-1.871-1.675-3.145.718-1.34 4.25-1.217 4.939.172l.3.606.322-.779c.704-1.698 4.778-1.276 4.778.495 0 1.183-1.864 3.136-2.389 2.503-.933-1.124-1.811-1.262-2.538-.399-.72.857-1.78 1.012-3.737.547m2.305-1.98c.424-.511-.82-.862-1.662-.468l-.578.27.661.275c.919.382 1.21.368 1.579-.077m3.977-.143c0-.146-.126-.265-.28-.265s-.206.12-.116.265.216.264.28.264.116-.119.116-.264m17.684 2.203c-.67-.178-.787-.809-.346-1.864.219-.525.324-1.188.233-1.473-.34-1.072 2.348-1.438 3.331-.454 1.819 1.818-.474 4.518-3.218 3.79m1.102-2.468c0-.146-.209-.263-.463-.26-.396.002-.406.04-.066.26.499.323.529.323.529 0m-13.94 2.173c-1.942-1.234.27-4.564 2.362-3.555.517.249.53.29.102.306-.365.013-.423.105-.222.348 1.408 1.705-.415 4.063-2.242 2.901m5.69-.187c-1.155-.645-1.197-3.242-.06-3.679 1.78-.683 6.02.161 6.143 1.224.243 2.078-3.822 3.718-6.083 2.455m2.622-1.617c-.088-.088-.316-.097-.507-.02-.211.084-.149.147.16.16.279.01.435-.052.347-.14m-317.74 6.13c.482-.497 1.705-1.404 2.716-2.015 2.44-1.475 2.529-1.686.61-1.462-3.236.379-4.602 1.373-4.602 3.348 0 1.267.154 1.283 1.275.129m-.645-6.601c2.523-1.055 10.697-1.255 88.743-2.175 14.041-.166 15.176-.213 15.405-.64.278-.52 4.462-12.105 5.11-14.149 1.617-5.104 3.29-13.378 3.533-17.477l.158-2.66-1.029-.8c-.566-.44-2.458-1.675-4.204-2.745-79.377-48.648-51.36-168.314 39.423-168.38 45.39-.034 86.986 35.706 94.703 81.371 7.612 45.042-9.54 80.436-46.946 96.877-6.685 2.938-21.206 6.538-26.373 6.538-1.238 0-1.062-.285-1.925 3.11-.5 1.967-.806 6.579-.806 12.165v5.693l12.634-.14c6.948-.077 23.945-.27 37.77-.427 58.964-.67 75.874-.832 88.37-.843 14.924-.014 20.501-.22 21.18-.783.412-.342.433-1.96.281-22.338-.183-24.675-.136-23.984-1.538-22.715-.544.493-2.571.4-16.054-.73-6.457-.542-7.246-.696-6.548-1.275.311-.258 1.051-.268 3.39-.048 4.725.445 13.818 1.045 17.148 1.132l3.043.08-.042-3.837c-.463-41.994-.662-107.607-.37-121.79.186-8.994.282-16.408.215-16.476-.285-.284-7.424-1.694-9.857-1.946-1.455-.151-4.551-.633-6.88-1.07-6.874-1.295-9.387-1.686-9.58-1.494-.38.381-.72 189.067-.341 189.423.073.068 5.609.167 12.303.22l12.17.097.07-7.872.071-7.871-2.187-.002c-10.14-.011-18.648-.167-18.926-.347-.935-.605.613-.709 10.532-.709h10.563l.163-.65c.171-.682.015-2.71-.227-2.952-.077-.077-4.61-.21-10.072-.295-9.335-.145-10.919-.265-10.393-.785.233-.231 12.05-.176 17.313.08l3.256.16-.081-1.417-.081-1.417-1.985-.18c-1.09-.099-4.127-.253-6.746-.341-8.147-.277-12.304-.695-12.304-1.238 0-.503.963-.564 4.071-.258 1.763.174 6.146.43 9.74.567 3.595.138 6.68.282 6.856.321.263.058.4-5.006.143-5.269-.026-.026-2.903-.174-6.393-.329-9.106-.404-14.19-.832-14.07-1.184.12-.347-.09-.352 9.575.223 4.22.251 8.507.476 9.525.5l1.852.044.079-1.479c.123-2.342.499-2.265-13.97-2.882-7.515-.32-8.466-.428-8.466-.96 0-.447.432-.453 6.747-.103 2.62.146 7.312.378 10.428.516 3.2.143 5.736.367 5.828.517.332.536.33 35.762-.001 36.162-.51.615-25.963.555-26.475-.062-.37-.446-.454-159.772-.096-181.774l.142-8.777-1.395-.276c-.767-.151-4.074-.706-7.348-1.233a1102 1102 0 0 1-9.658-1.596c-2.037-.35-6.561-1.118-10.054-1.703-3.492-.586-7.838-1.351-9.657-1.701s-4.498-.832-5.953-1.071c-1.455-.24-3.153-.546-3.772-.682-1.115-.245-4.138-.776-17.31-3.037-3.736-.641-8.617-1.52-10.847-1.954-3.824-.744-5.371-1.021-13.447-2.413-1.82-.313-4.915-.854-6.88-1.2-1.964-.348-7.5-1.29-12.302-2.093-4.803-.803-11.41-1.934-14.685-2.514-3.274-.579-8.037-1.41-10.583-1.847a17820 17820 0 0 0-29.501-5.038c-4.22-.716-8.983-1.533-10.583-1.816-14.1-2.49-21.052-3.69-29.237-5.04-3.565-.587-8.804-1.426-11.642-1.864a554 554 0 0 1-8.995-1.466c-2.11-.37-5.92-1.02-8.467-1.446-7.367-1.231-9.306-1.567-10.716-1.855-.727-.148-6.026-1.04-11.774-1.983-5.748-.942-12.713-2.135-15.478-2.65-2.765-.514-6.337-1.165-7.937-1.448s-4.637-.819-6.747-1.194c-2.11-.374-5.146-.906-6.747-1.182s-3.684-.687-4.63-.913c-2.225-.532-2.545-.537-2.13-.037.409.492.168 247.141-.242 248.563-.398 1.38-.2 1.548 1.15.984zm310.387-57.194c-3.202-.182-6.271-.343-6.822-.357-.904-.024-1.58-.577-1.185-.971.153-.153 18.03.915 18.987 1.134l.661.151-.661.2c-.919.279-4.168.232-10.98-.157m9.26-4.271c-2.934-.108-13.728-1.115-15.342-1.432-2.686-.528-2.591-.49-2.246-.906.175-.21.407-.328.516-.26.44.271 10.711 1.283 16.103 1.586 2.447.138 4.86.63 4.661.95-.083.135-.472.222-.863.192-.392-.029-1.665-.088-2.829-.13m-.207-3.168c-.38-.605-6.025-1.311-14.543-1.82-2.572-.155-2.845-.22-2.845-.68 0-.581 1.307-.554 9.26.194 7.182.675 8.634 1.038 8.424 2.103q-.101.509-.296.203m-14.874-28.383c-2.634-.373-4.723-1.6-2.73-1.603 1.025-.002 5.163.901 5.473 1.194.757.716.105.813-2.743.41m10.848-5.226c-1.89-.17-11.89-1.43-12.471-1.573-.987-.24-.493-1.198.53-1.029 5.87.97 10.2 1.545 13.925 1.847 3.028.246 4.234.446 4.234.704 0 .223-3.946.255-6.218.05m-2.647-5.621c-.292-.119-2.018-.415-3.837-.659-6.085-.816-9.121-1.738-5.721-1.738 4.044 0 10.873 1.147 10.628 1.786-.078.205-.143.483-.143.616 0 .288-.209.286-.927-.006m5.916-.672c-.07-.069-1.071-.296-2.227-.505l-2.1-.38 3.307-.019c3.264-.02 4.21.161 3.855.736-.176.284-2.577.426-2.835.168m1.758-2.796c-.728-.113-2.075-.216-2.994-.23-.92-.012-1.894-.142-2.167-.288-.407-.218-4.239-.856-12.235-2.039-1.08-.16-1.404-.87-.397-.87.327 0 2.56.355 4.96.79 2.402.434 5.14.92 6.086 1.081s2.434.45 3.307.642 2.243.433 3.043.535 1.634.288 1.852.413c.446.255.39.253-1.455-.034m.265-3.708c-.874-.118-4.386-.58-7.806-1.028-5.178-.677-9.835-1.499-11.29-1.993-.174-.06-.246-.352-.164-.666.101-.387.28-.508.575-.39 1.03.409 6.749 1.44 8.763 1.58 1.452.101 11.93 1.657 12.663 1.88.289.088.296.189.034.504-.354.427-.422.43-2.776.113m-2.91-6.498c-1.31-.212-5.274-.857-8.808-1.434-3.534-.576-6.48-1.048-6.548-1.048s-.123-.245-.123-.545.111-.476.247-.392 1.475.323 2.976.53c4.035.559 13.169 1.93 15.168 2.28 1.079.187 1.704.417 1.643.604-.145.441-1.85.443-4.556.005m-1.995-50.24c-11.533-1.526-13.735-2.066-13.774-3.382-.738-25.07-.756-25.005 6.375-23.595 1.82.36 4.439.84 5.821 1.065 1.383.226 3.05.578 3.704.781s1.964.506 2.91.67c.945.165 1.806.438 1.914.607.223.35.28 22.4.058 22.4-.08 0-.484-.176-.899-.39-.744-.385-4.13-.9-9.539-1.45a303 303 0 0 1-6.168-.713c-3.73-.474-4.632-.293-3.43.69.612.5 2.006.803 6.688 1.454 1.528.212 4.967.695 7.641 1.074 2.675.378 5.027.625 5.226.548.23-.088.362.05.362.382 0 .68-.813.664-6.89-.14m6.36-6.068V7.176l-1.125-.132c-5.41-.638-14.434-1.872-15.892-2.173-.992-.205-1.915-.373-2.05-.373-.32 0-.324 4.793-.005 5.632.282.742 2.573 1.173 10.208 1.922 2.329.228 4.948.574 5.821.769s1.915.366 2.315.381l.728.027zm-.265-6.867c0-3.592.53-3.208-5.132-3.726-5.648-.518-10.846-1.54-13.455-2.645-.427-.181-.463.063-.463 3.129v3.325l.992.263c.546.145 2.421.454 4.168.687 5.347.714 12.429 1.776 12.545 1.881.973.881 1.345.075 1.345-2.914m0-5.954v-1.824l-.992-.115c-1.074-.123-14.394-2.91-16.674-3.488-1.684-.427-1.74-.357-1.502 1.865l.186 1.742 1.218.539c1.764.78 7.811 1.937 12.791 2.448 2.371.243 4.361.49 4.422.55.39.38.551-.12.551-1.717m-.05-3.789c.101-.87.806-.68-8.152-2.192-3.856-.65-7.822-1.329-8.813-1.508-1.54-.277-1.838-.268-2.05.063-.565.878-.159 1.146 2.265 1.493 2.902.415 15.032 2.726 15.203 2.897.42.42 1.471-.09 1.548-.753M135.07 181.201c9.022-.163 20.382-.37 25.244-.46l8.84-.163-.057-5.16c-.053-4.919.336-10.138 1.022-13.728.15-.783.273-1.468.273-1.52 0-.054-.923-.098-2.05-.098-12.025-.007-24.788-2.401-29.688-5.568-2.107-1.362-2.111-1.36 1.641-.464 24.705 5.9 43.94 4.584 62.258-4.258 28.087-13.558 42.149-35.465 44.173-68.82.235-3.873-.315-15.117-1.09-22.294-.951-8.798-1.315-9.29-1.513-2.047-.224 8.192-2.073 12.785-7.182 17.842-16.98 16.807-39.814-18.307-28.04-43.118 5.36-11.294 14.276-14.547 21.094-7.695 2.081 2.09 2.478 2.199 1.805.49-3.185-8.079-19.043-25.078-29.845-31.99-55.24-35.353-124.154-4.875-132.02 58.385-4.63 37.222 12.469 71.325 46.106 91.962 5.25 3.22 5.42 3.507 4.894 8.272-.807 7.327-4.73 21.727-7.703 28.285-1.265 2.79-1.317 2.733 2.325 2.577 1.71-.074 10.49-.267 19.513-.43m51.329-66.723c-4.329-2.102-4.822-6.864-1.053-10.181 3.407-3 8.134-2.042 9.824 1.99 1.954 4.664-4.2 10.41-8.771 8.19m4.575-1.74c4.216-2.162 3.844-7.954-.558-8.668-4.83-.784-8.321 6.223-4.317 8.664 1.118.682 3.549.684 4.875.004m34.892-31.38c-2.998-.824-6.277-2.5-7.429-3.798-.867-.976-.279-.912 1.738.19 8.136 4.448 17.164 2.558 20.772-4.346.81-1.551.92-1.634 1.397-1.057.812.977-3.793 6.323-6.803 7.896-2.844 1.488-6.701 1.932-9.675 1.115m-93.082-7.012c-10.276-1.628-18.286-7.144-23.548-16.214a161 161 0 0 0-1.858-3.122c-.897-1.45-.912-1.6-.201-2.045.767-.479 1.077-.146 1.96 2.108 5.929 15.11 28.79 23.128 42.846 15.026 2.668-1.537 4.452-1.705 2.602-.244-4.355 3.44-14.823 5.597-21.8 4.491m.946-3.056c-20.07-3.374-31.192-25.305-22.257-43.886 13.144-27.333 50.201-22.047 56.431 8.05C172.364 57 155.282 74.913 133.73 71.29m10.865-3.054c20.322-2.467 29.11-27.725 15.366-44.163-12.717-15.211-35.11-13.11-43.742 4.105C105.974 48.61 121.834 71 144.595 68.236m-4.01-8.447c-18.157-3.27-20.226-33.52-2.561-37.45 12.703-2.826 23.46 10.184 20.468 24.757-1.876 9.135-9.126 14.274-17.907 12.693m7.229-1.546c16.463-5.731 11.353-34.722-6.13-34.78-18.109-.06-19.708 29.573-1.876 34.774 1.032.3 1.995.586 2.141.635 1.072.358 3.902.054 5.865-.63m-4.807-2.33c-13.727-1.937-17.35-22.41-5.027-28.406 8.03-3.905 18.14 4.428 18.12 14.935-.015 8.244-6.06 14.464-13.093 13.472m5.503-2.177c4.03-1.924 6.926-7.309 6.415-11.932-1.542-13.943-16.04-18.933-21.766-7.492-5.456 10.9 5.134 24.3 15.351 19.424m-5.662-2.77c-6.596-2.358-8.975-12.578-4.07-17.484 5.396-5.395 13.717.536 13.311 9.487-.253 5.597-4.843 9.568-9.24 7.996m5.56-2.746c3.622-3.567 3.522-9.05-.24-13.13-4.767-5.172-11.315-.715-10.445 7.108.683 6.14 6.968 9.683 10.685 6.022m-43.064 2.562c-1.615-1.733-2.616-11.634-1.197-11.836.53-.076.58.094.888 3.043.179 1.717.504 4.075.722 5.24.803 4.279.743 4.794-.413 3.553m65.041-13.36c-.142-.374-.258-.825-.258-1.003 0-.179-.37-1.51-.822-2.96-10.509-33.705-50.844-33.236-62.125.724-1.415 4.258-2.325 4.76-1.496.825 3.674-17.429 20.799-30.356 36.547-27.588 14.968 2.63 24.623 11.65 28.421 26.555.782 3.069.58 5.674-.267 3.446m60.993 37.188c10.102-4.82 11.674-26.178 2.9-39.42-6.391-9.648-13.716-11.438-19.95-4.876-3.091 3.255-4.354 6.67-1.377 3.723 7.11-7.035 18.644 8.37 16.452 21.974-1.725 10.706-11.67 16.57-16.338 9.633-.884-1.315-.74-1.524.376-.545 9.881 8.677 19.593-9.094 12.664-23.173-2.509-5.098-7.21-8.735-10.292-7.962-1.015.255-.688.588 1.084 1.102 6.337 1.84 11.149 14.41 8.606 22.48-3.02 9.588-12.706 8.93-16.306-1.107-5.895-16.437 5.127-37.344 17.695-33.562 1.719.517 1.788.325.176-.491-9.66-4.896-19.96 7.85-19.969 24.71-.009 17.821 13.206 32.797 24.28 27.514m-11.937-11.663c6.557-1.82 7.637-14.548 1.915-22.567-5.935-8.317-12.07-4.701-12.07 7.113 0 9.939 4.631 16.988 10.155 15.454m-3.631-4.061c-4.727-2.556-6.843-9.942-4.68-16.336 2.538-7.497 10.71-1.908 11.311 7.735.349 5.6-3.338 10.381-6.631 8.6m2.714-1.328c3.973-2.054 3.693-10.77-.491-15.309-2.648-2.873-4.765-1.997-6.143 2.543-1.964 6.464 2.44 14.935 6.634 12.766" style="fill:#000" transform="translate(30.644 81.294)"/></svg>